<?xml version="1.0" standalone="yes"?>
<svg xmlns="http://www.w3.org/2000/svg" width="170" height="280">
<path style="fill:#9bd9eb; stroke:none;" d="M0 0L0 280L170 280L170 0L0 0z"/>
<path style="fill:#efecd1; stroke:none;" d="M14 19L14 24C17.4591 24.6331 17.8159 27.4919 21 28C19.5215 28.9857 19.7968 29 18 29C20.2876 29.8133 21.0083 29.3987 23 28L25 32C22.7921 31.5465 22.4492 31.3537 21 33C19.8137 31.9644 19.3964 31.6614 18 31C18.2803 34.3593 18.3574 37.6452 18 41C19.915 42.2767 19.085 42.2767 21 41C21 42.7968 21.0143 42.5215 22 44C18.6246 46.3572 18.5221 50.1108 18 54C26.7453 54.2016 24.5201 60.6235 24 67C26.2106 67.5836 26.6455 68.1036 28 70C26.8137 68.8137 26.4162 68.4721 25 68L24 72C26.1559 70.6525 28.4039 70.4782 31 70C31 71.7968 31.0143 71.5215 32 73C34.4537 72.2916 36.4496 71.9619 39 72L36 78L40 79C39.3501 77.7003 39.8532 78 38 78C40.0505 78.0607 41.0417 78.3005 43 79C43.6735 76.7026 43.9653 76.2259 46 75C44.9644 76.1863 44.6614 76.6036 44 78C50.4763 79.3546 58.2009 77 65 77C62.271 77.8102 59.8495 77.9792 57 78C58.7691 78.7789 60.0359 78.9124 62 79C61.7074 81.1328 61.5096 81.5735 63 83L61 87C58.8339 85.8047 57.4471 85.309 55 85L56 101L60 99L61 111C60.3562 108.894 60.0941 107.205 60 105L56 115L63 115C62.1055 117.042 61.4637 118.828 61 121C63.38 119.334 63.6816 117.877 64 115C67.0045 115.278 68.6291 115.105 69 112L72 113C72.7091 111.205 74.1911 106.436 76 108C76.7884 106.026 76.8642 104.138 77 102L78 104C79.287 100.609 79.5201 96.6277 80 93C78.7003 93.6498 79 93.1468 79 95C78.8981 92.2475 79.1782 90.7177 82 90L82 86C82.9857 87.4785 83 87.2032 83 89C83.683 87.4939 83.8259 86.6852 84 85L86 85L86 89C86.6848 87.7516 86.7488 87.4516 87 86L91 92C89.5215 91.0143 89.7968 91 88 91C88.9684 93.9482 90.1415 94.8159 93 96C88.8604 103.066 97.1771 111.231 104 112L104 108C106.006 111.941 104.465 117.414 108 120C108.199 117.894 108.456 117.457 110 116L111 106L108 110C109.373 106.333 109.919 102.911 110 99L114 101L113 94L114 96C115.338 92.6519 114.954 88.6113 115 85C112.924 85.032 111.606 85.226 110 84C108.7 84.6498 109 84.1468 109 86L107 83C108.49 81.5735 108.293 81.1327 108 79L113 79C110.387 77.9023 107.836 78.0072 105 78C112.285 75.8466 118.887 79.5269 126 78C125.232 76.6858 125.314 76.7679 124 76C126.291 76.3114 126.32 76.3659 128 78L132 77L130 78C131.809 78.5743 132.069 78.4653 134 78C132.777 76.8049 132.58 76.6836 131 76C132.479 75.0143 132.203 75 134 75C131.607 74.2592 129.507 74.6978 127 75C129.608 73.478 132.213 72.1606 135 71L134 73L138 73C138.986 71.5215 139 71.7968 139 70C141.265 70.4003 143.264 70.5313 145 72C147.421 65.1239 141.344 54.2457 152 54C151.542 50.564 150.513 47.1799 152 44C151.659 39.6612 151.605 35.336 152 31C150.686 31.7679 150.768 31.6858 150 33C147.924 31.5978 147.459 31.5184 145 32L147 28C148.826 29.3362 149.753 29.6904 152 30C150.752 29.3152 150.452 29.2512 149 29C150.479 28.0143 150.203 28 152 28C152.369 25.2007 153.313 24.7228 156 24C155.705 20.9989 155.75 19.4377 153 18C152.547 20.793 151.999 21.6363 155 22C152.312 22.1245 151.396 21.7597 151 19C148.962 19.1798 148.552 19.1638 147 18C144.194 21.0813 140.209 22.3983 138 26C136.199 25.4382 134.878 25.1759 133 25C134.248 25.6848 134.548 25.7488 136 26C132.855 27.1446 129.795 27.5504 129 31C124.128 30.2917 119.695 30.4775 115 32C115.465 33.9818 115.703 34.4055 117 36C114.122 37.136 112.497 37.8726 110 36L109 40L113 41L107 46C107.545 44.3649 107.365 44.545 109 44C107.317 43.3234 105.822 43.1813 104 43L103 44C103.534 46.6703 102.215 46.443 105 47L101 51C100.386 48.1492 99.6973 48.1456 97 49C97.5451 50.6351 97.3649 50.455 99 51C96.3559 53.7188 94.8878 55.0706 91 55C91.2264 57.7161 91.2719 60.288 91 63C90.0143 61.5215 90 61.7968 90 60C87.8045 62.8429 86.5101 65.437 86 69L84 69C83.5599 65.9277 82.5004 63.7154 81 61C79.8046 61.5977 80.0226 61.4661 79 63C78.7461 60.2835 78.7681 57.7187 79 55L73 54L73 49C70.3027 48.1456 69.614 48.1492 69 51L65 47C66.326 45.5914 66.1528 45.0306 66 43C62.8243 42.4966 61.6695 41.7449 60 39C57.03 39.6332 54.9539 39.7201 52 39L56 39C54.5502 37.3924 53.9486 36.9357 52 36L53 31C49.2791 30.51 45.7065 30.3818 42 31C39.9953 27.8218 37.666 27.2461 34 27L36 26C33.0912 25.1789 30.0654 26.2126 27 26C28.8006 25.4382 30.1218 25.1759 32 25C29.5234 22.7099 27.3096 21.6393 24 21C24.0587 18.9937 23.3105 18.0423 22 20C19.2286 18.0287 17.237 18.084 14 19M28 18L26 19C27.482 19.7912 28.7964 19.8698 28 18M141 18C140.455 19.6352 140.635 19.4549 139 20C140.846 20.4675 142.069 20.3012 144 20C142.861 18.9846 142.388 18.6913 141 18z"/>
<path style="fill:#9bd9eb; stroke:none;" d="M17 19C17.2162 21.4502 17.4358 21.6857 15 22C16.5061 22.683 17.3148 22.8259 19 23C19.6514 25.4344 20.1602 26.2827 22 28L19 21C21.624 22.7143 24.0133 24.056 27 25C24.1531 22.1143 20.7995 20.3832 17 19z"/>
<path style="fill:#efecd1; stroke:none;" d="M157.333 21.6667C157.278 21.7221 157.222 22.7779 157.667 22.3333C157.722 22.2777 157.778 21.2222 157.333 21.6667z"/>
<path style="fill:#9bd9eb; stroke:none;" d="M143 24C145.14 24.4103 145.962 23.9685 148 23C145.86 22.5897 145.038 23.0315 143 24M150 23L148 28C149.848 26.2198 150.566 25.5087 150 23z"/>
<path style="fill:#efecd1; stroke:none;" d="M39 25C40.312 26.4591 41.2309 27.1572 43 28C41.5502 26.3924 40.9486 25.9357 39 25M127 28C128.949 27.0643 129.55 26.6076 131 25C129.051 25.9357 128.45 26.3924 127 28z"/>
<path style="fill:#9bd9eb; stroke:none;" d="M31.6667 27.3333C31.2222 27.7778 32.2778 27.7222 32.3333 27.6667C32.7777 27.2223 31.7222 27.2778 31.6667 27.3333M137.667 27.3333C137.222 27.7778 138.278 27.7222 138.333 27.6667C138.778 27.2222 137.722 27.2777 137.667 27.3333M37.6667 30.3333C37.2223 30.7777 38.2777 30.7223 38.3333 30.6667C38.7778 30.2222 37.7222 30.2778 37.6667 30.3333M44.6667 31.3333C44.2222 31.7778 45.2778 31.7222 45.3333 31.6667C45.7778 31.2221 44.7222 31.2778 44.6667 31.3333M124.667 31.3333C124.222 31.7778 125.278 31.7222 125.333 31.6667C125.778 31.2223 124.722 31.2778 124.667 31.3333M49.6667 32.3333C49.2222 32.7778 50.2778 32.7222 50.3333 32.6667C50.7778 32.2222 49.7223 32.2777 49.6667 32.3333M119.667 32.3333C119.222 32.7778 120.278 32.7223 120.333 32.6667C120.778 32.2223 119.722 32.2778 119.667 32.3333M21 33L22 34L21 33z"/>
<path style="fill:#efecd1; stroke:none;" d="M54.3333 33.6667C54.2777 33.7223 54.2222 34.7778 54.6667 34.3333C54.7222 34.2778 54.7778 33.2222 54.3333 33.6667z"/>
<path style="fill:#9bd9eb; stroke:none;" d="M148 33L149 34L148 33M117 39C119.787 37.8393 122.392 36.522 125 35C121.466 34.424 119.238 36.397 117 39M50.6667 37.3333C50.2223 37.7777 51.2777 37.7223 51.3333 37.6667C51.7778 37.2222 50.7222 37.2778 50.6667 37.3333M20 38C21.4978 41.4004 23.0732 43.7045 26 46C24.8398 44.0127 23.065 42.1025 24 40C22.6234 39.0886 21.5601 38.5962 20 38M28 40L28 42L30 42C29.455 40.3649 29.6352 40.5451 28 40M113.667 40.3333C113.222 40.7779 114.278 40.7222 114.333 40.6667C114.778 40.2222 113.722 40.2778 113.667 40.3333M141 40L140 42L142 42C142 40.1468 142.3 40.6498 141 40M57 41L58 42L57 41M147 41C147.899 43.1236 147.876 43.1007 150 44C149.027 42.7301 148.27 41.9725 147 41M145 44L144 46C145.263 45.0287 145.392 45.3063 145 44M22 48C22.5451 49.6352 22.3648 49.4549 24 50L24 48L22 48M146.333 48.6667C146.278 48.7222 146.222 49.7778 146.667 49.3333C146.722 49.2777 146.778 48.2223 146.333 48.6667M25 49C26.969 50.0628 28.7984 50.5321 31 51C28.9433 49.4181 27.6125 49.1744 25 49M139 50C141.08 50.5069 142.838 50.2369 145 50C142.677 49.0785 141.419 49.3127 139 50M24 51C25.3635 53.7308 26.8305 55.8531 29 58C27.1226 61.3763 28.7149 63.1245 31 66L29 66C30.1034 67.4566 30.5434 67.8966 32 69C32 66.9146 31.8619 67.2759 34 67C32.4684 64.794 30.8624 62.9454 29 61L33 61C30.4102 57.3094 27.4111 53.951 24 51M69 51L70 52L69 51M100 51L101 52L100 51M145 51L142 56C143.903 54.3524 144.875 53.5047 145 51M140 57L141 58L140 57M142 59C140.314 60.1545 139.09 60.0334 137 60C138.506 60.683 139.315 60.8259 141 61C140.014 62.4785 140 62.2031 140 64C141.693 62.2182 142.375 61.419 142 59z"/>
<path style="fill:#efecd1; stroke:none;" d="M82 60C83.9753 63.4719 86.0247 63.4719 88 60L82 60z"/>
<path style="fill:#9bd9eb; stroke:none;" d="M136.667 66.3333C136.222 66.7778 137.278 66.7222 137.333 66.6667C137.778 66.2222 136.722 66.2777 136.667 66.3333M138 69C139.457 67.8966 139.897 67.4567 141 66C139.077 66.9015 139.001 67.0762 138 69M144 66L142 70C143.63 68.4852 144.163 68.1447 144 66M90.3333 67.6667C90.2778 67.7222 90.2222 68.7778 90.6667 68.3333C90.7223 68.2777 90.7777 67.2223 90.3333 67.6667M81 76L81 81C81.8299 78.9695 81.8299 78.0305 81 76M88 76L88 81C88.8299 78.9695 88.8299 78.0305 88 76M102 76C102.684 77.58 102.805 77.7772 104 79L104 76L102 76M121 76C122.248 76.6848 122.548 76.7488 124 77C122.752 76.3152 122.451 76.2512 121 76M65 79C64.0427 80.5167 63.6128 81.3385 63 83C64.63 81.4852 65.1631 81.1448 65 79M84 80L83 85C84.7609 84.2087 84.5454 84.0383 86 85C86.779 83.2309 86.9124 81.9641 87 80L84 80M105 80C105.684 81.58 105.805 81.7772 107 83C106.316 81.42 106.195 81.2228 105 80M109 86L112 94C112.923 90.6284 111.379 88.3835 109 86M59 87L58 91C59.1456 89.3595 59.393 88.924 59 87M57 92L56 96C57.1456 94.3595 57.393 93.924 57 92M77.6667 96.3333C77.2222 96.7778 78.2778 96.7222 78.3333 96.6667C78.7778 96.2222 77.7222 96.2778 77.6667 96.3333M76 98L71 109L76 105C75.9482 102.609 76.5096 100.292 76 98M93 98C93.5586 100.4 94.05 102.538 94 105C95.617 106.299 96.6724 107.39 98 109C98.0423 105.027 95.4959 101.012 93 98M68.3333 101.667C68.2778 101.722 68.2222 102.778 68.6667 102.333C68.7223 102.278 68.7777 101.222 68.3333 101.667M101 101L101 107C102.661 106.792 102.54 106.505 103 108C103.866 105.048 102.981 103.277 101 101z"/>
<path style="fill:#efecd1; stroke:none;" d="M57 102C55.4661 103.023 55.5977 102.805 55 104L57 108C57.9511 105.715 57.9511 104.285 57 102M55 107L55 112C55.8299 109.97 55.8299 109.03 55 107z"/>
<path style="fill:#9bd9eb; stroke:none;" d="M100 110L101 111L100 110M107 115L108 116L107 115z"/>
<path style="fill:#efecd1; stroke:none;" d="M65 117L65 120C66.1952 118.777 66.3164 118.58 67 117L65 117z"/>
</svg>
