<?xml version="1.0" standalone="yes"?>
<svg xmlns="http://www.w3.org/2000/svg" width="170" height="280">
<path style="fill:#93877d; stroke:none;" d="M0 0L0 280L170 280L170 0C161.727 0 153.239 0.599609 145 0C147.197 5.68994 143.421 11.8237 141 17C144.622 14.7896 146.333 11.8521 148 8L147 15C148.861 14.16 150.334 13.2018 152 12C148.645 19.5182 141.558 24.6466 138 32C139.939 31.1083 140.519 30.5982 142 29L143 33C136.35 36.1922 127.978 45.9365 126 53C120.239 53.6864 115.177 62.7055 111.265 66.7955C101.471 77.0374 93.1193 88.0958 84.8341 99.5748C81.284 104.493 75.5376 110.957 75 117C73.0977 118.334 73.0336 118.663 73 121C69.2051 123.396 67.6188 127.231 65.3194 131C60.6931 138.584 56.2602 146.726 53 155C53.3103 155 55.8621 155.207 56 155L56 153C58.3303 149.738 60.503 146.593 62 143C61.7745 143.541 63.0787 138.382 62 140C62.2382 139.643 64.4446 139 65 138C68.2036 132.234 70.336 125.496 74 120C75.3665 117.95 77.9457 116.355 79 115C81.1587 112.225 82.1855 108.024 84 105L85 106C85 103.146 87.7316 101.399 88 98C90.2006 97.5754 91.2367 96.4811 93 95L92 93C98.2134 89.8506 102.048 82.1812 106.609 77.0802C111.677 71.4117 120.773 65.9664 122 58C128.079 55.8106 131.998 49.104 135.861 44.1659C143.908 33.8805 151.57 22.9148 160 13C163.94 22.9078 156.42 24.5529 154 33C155.924 31.9988 156.098 31.9225 157 30L159 31L162 28C161.986 32.0122 161.929 35.5875 159.276 38.8704C156.255 42.6098 151.599 43.8558 149 48C151.642 47.0184 154.191 46.2439 157 46C158.223 44.8048 158.42 44.6836 160 44C158.507 55.1711 147.148 59.2477 138 63C142.905 65.0535 150.904 63.4415 154 59C154.876 63.0535 153.583 66.8999 154 71C149.826 74.1705 148.248 81.6071 145.022 85.9599C142.111 89.8881 137.578 91.886 135 96C137.914 95.4171 136.93 96.5879 139 94C137.881 98.1375 133.716 99.8772 131 103L137 102C132.679 109.604 126.637 116.06 119.715 121.38C115.95 124.273 110.79 125.061 108 129C100.909 128.931 94.3521 133.678 87 133.871C82.2429 133.996 77.2082 131.46 74 136C77.7857 135.997 81.306 135.879 85 135C90.5411 142.269 105.683 138.056 113 136L112 145C110.098 146.334 110.034 146.663 110 149C106.537 151.378 104.807 154.932 104 159C100.852 159.666 99.4881 162.146 96.8264 163.93C91.385 167.577 83.9999 169.56 80 175C74.919 174.272 68.275 177.1 63 178C70.6015 181.19 78.5646 177.588 86 176C81.0821 181.502 75.7565 186.75 70.2901 191.711C67.1799 194.533 64.1132 196.262 62 200C57.8799 200.341 53.4642 202.606 51 206C46.8536 205.924 40.3061 206.535 39 211C43.6411 209.699 48.4783 210.339 52.9606 209.046C57.2624 207.804 60.9636 204.824 65 203C59.3344 213.447 47.805 218.256 37.9144 223.741C33.4284 226.228 30.2544 229.425 25 230C28.8641 219.923 33.0561 209.35 36 199C34.2032 199 34.4785 199.014 33 200L34 202C30.2874 204.731 30.2651 209.07 28.6867 213.116C25.2487 221.929 21.8181 230.657 20 240L16 239C21.2094 225.473 25.2912 211.5 30.5478 197.985C37.2437 180.771 45.2392 164.02 52.4853 147.004C56.0192 138.705 60.5203 130.921 64.7801 122.996C66.9066 119.04 69.6811 115.522 70 111C74.398 110.267 73.0927 107.179 75 104L76 105C75.888 101.864 79.5813 98.2334 81.6667 95.8333C84.866 92.151 90.4448 85.8579 91 81L93 82C95.2922 77.263 99.2136 73.596 102.715 69.7153C112.896 58.4293 126.167 48.321 135 36C123.107 40.6076 113.377 53.7112 104.755 62.7106C100.429 67.2257 94.738 71.8357 93 78C86.2127 79.4601 80.2872 90.9839 76.3194 96.4244C64.561 112.547 56.5983 131.258 48.3302 149.285C45.1493 156.221 39.6307 164.142 40 172C36.4014 174.691 35.3534 180.033 33.6119 184.09C29.2459 194.26 25.8913 204.739 21.7994 215.004C19.7861 220.054 19.0409 226.287 14 229C14.8558 224.582 13.1579 220.475 13.2454 216C13.4631 204.859 14.3683 191.803 17 181C17.8222 187.027 18 192.924 18 199C20.5028 193.035 19.7383 184.541 21 178L22 188C24.0342 183.195 23.6278 177.184 24.2616 172.011C25.3678 162.981 26.7721 153.689 29.4992 145C31.5489 138.469 34.7455 132.236 37.7176 126.09C39.4246 122.559 41.7182 119.969 42 116C44.7117 114.226 45.744 111.967 47 109C48.7777 115.014 48 121.757 48 128C50.2455 124.522 48.8868 120.072 49.0363 116C49.2837 109.259 50.6564 101.557 52.2747 95.0039C54.1372 87.4622 60.3826 80.4582 61 73C62.9023 71.6659 62.9664 71.3368 63 69C67.4861 66.2607 73.5408 58.2518 74 53C77.507 51.3173 80.0527 48.5062 83 46L81 58C84.4418 53.5319 84.7403 46.9793 87.7631 42.0147C91.6642 35.6076 98.3826 30.8435 104 26C101.892 32.9173 101.659 40.0355 100 47C103.825 43.9499 105.143 36.7072 105 32C108.397 29.4511 109.227 24.6347 111.349 21C113.503 17.31 116.801 14.5741 119 11L121 12C126.776 6.34525 136.229 2.90256 144 1C139.785 -0.768738 134.536 0 130 0L101 0L0 0z"/>
<path style="fill:#3651b7; stroke:none;" d="M144 0L145 1L144 0z"/>
<path style="fill:#bdb3ac; stroke:none;" d="M147 0L148 1L147 0M139 1L140 2L139 1z"/>
<path style="fill:#3651b7; stroke:none;" d="M142 1L143 2L142 1z"/>
<path style="fill:#02a3e8; stroke:none;" d="M100 53C98.464 45.633 101.6 35.4304 103 28C85.902 37.8814 84.2812 51.326 81 69C78.6998 61.2153 81.9576 53.7411 83 46C76.4287 50.727 71.4346 58.2147 67.1196 65C61.6031 73.6748 55.5468 83.0214 52.7461 93C48.941 106.557 50.409 120.234 51 134C47.0359 127.125 47.9738 118.705 47 111C42.0651 116.253 38.8283 123.515 35.767 130.004C26.2229 150.233 23 172.702 23 195L21 195L21 183C18.3531 188.508 19 195.025 19 201C17.6735 196.554 17.1995 191.646 17 187C14.7343 192.252 15.2072 198.378 14.9606 204C14.5975 212.28 13.9509 219.698 15 228C20.6567 224.698 22.185 213.955 24.4236 208C30.9846 190.546 37.6491 173.01 45.3117 156C53.0814 138.753 60.665 121.091 70.706 105C79.8746 90.3076 91.7906 77.3791 103.194 64.4236C118.783 46.7142 141.032 33.5114 152 12L147 15L149 9C145.513 11.9893 143.752 15.7935 142 20C141.237 13.8222 145.084 6.88754 147 1C135.665 1.98837 119.755 8.81787 112.753 18.0934C105.617 27.5474 103.159 41.7862 100 53z"/>
<path style="fill:#3651b7; stroke:none;" d="M138.667 2.33334C138.222 2.77786 139.278 2.72211 139.333 2.66666C139.778 2.22238 138.722 2.27768 138.667 2.33334M146 2L147 3L146 2z"/>
<path style="fill:#bdb3ac; stroke:none;" d="M159 2C158.014 3.47855 158 3.20316 158 5C159.289 3.5574 159.401 3.76624 159 2M132 4L133 5L132 4z"/>
<path style="fill:#3651b7; stroke:none;" d="M134 4L135 5L134 4M145 5L146 6L145 5z"/>
<path style="fill:#151517; stroke:none;" d="M150 5L149 7C150.263 6.02866 150.392 6.30627 150 5z"/>
<path style="fill:#bdb3ac; stroke:none;" d="M145.333 6.66666C145.278 6.72214 145.222 7.77783 145.667 7.33334C145.722 7.27774 145.778 6.22223 145.333 6.66666z"/>
<path style="fill:#151517; stroke:none;" d="M156 6L157 7L156 6z"/>
<path style="fill:#3651b7; stroke:none;" d="M127 7L128 8L127 7z"/>
<path style="fill:#02a3e8; stroke:none;" d="M155 7L156 8L155 7z"/>
<path style="fill:#3651b7; stroke:none;" d="M148 8L149 9L148 8z"/>
<path style="fill:#02a3e8; stroke:none;" d="M154 8L155 9L154 8z"/>
<path style="fill:#bdb3ac; stroke:none;" d="M123 9L124 10L123 9z"/>
<path style="fill:#3651b7; stroke:none;" d="M147 9L148 10L147 9M154 9L155 10L154 9z"/>
<path style="fill:#bdb3ac; stroke:none;" d="M121 10L122 11L121 10z"/>
<path style="fill:#3651b7; stroke:none;" d="M152 10L153 11L152 10z"/>
<path style="fill:#02a3e8; stroke:none;" d="M153 10L154 11L153 10z"/>
<path style="fill:#bdb3ac; stroke:none;" d="M119 11L120 12L119 11z"/>
<path style="fill:#3651b7; stroke:none;" d="M121 11L122 12L121 11M143 11L144 12L143 11z"/>
<path style="fill:#02a3e8; stroke:none;" d="M152 11L153 12L152 11z"/>
<path style="fill:#3651b7; stroke:none;" d="M119 12L120 13L119 12z"/>
<path style="fill:#bdb3ac; stroke:none;" d="M153 12L154 13L153 12M158 12L159 13L158 12M116.667 13.3333C116.222 13.7777 117.278 13.7222 117.333 13.6667C117.778 13.2223 116.722 13.2777 116.667 13.3333z"/>
<path style="fill:#3651b7; stroke:none;" d="M149 13L150 14L149 13M151 13L152 14L151 13z"/>
<path style="fill:#02a3e8; stroke:none;" d="M159 13C140.757 41.5229 115.96 64.0975 95.2894 90.5756C74.2266 117.556 58.2172 147.755 44.5154 179C40.4557 188.258 36.9301 197.619 33.1782 207C30.3848 213.985 26.6787 221.456 26 229C30.9532 228.281 34.6951 225.326 39.0802 223.086C48.4527 218.299 60.1362 213.028 65 203C60.8682 205.105 57.5115 207.844 52.9105 209.035C46.8167 210.612 40.7837 210.169 35 213C38.6805 206.339 47.7424 206.54 54 203.204C65.1236 197.274 77.6903 187.301 85 177C75.8458 179.23 67.3573 178.817 58 180C64.4013 177.281 71.4709 176.777 78 174.293C94.9845 167.832 110.191 154.741 113 136C107.54 137.547 101.733 139.047 96 138.87C91.5599 138.734 87.3683 136.924 83 136.3C78.2585 135.623 73.69 136.407 69 137C77.5279 132.012 85.88 134.306 94.9853 132.09C103.12 130.111 110.154 124.816 118 123C124.652 116.055 132.882 111.131 137 102L125 105L140 96C136.514 95.207 133.293 96.7728 130 98C133.53 94.2259 138.764 93.0592 142.532 89.4715C150.078 82.2864 153.002 70.8457 155 61C146.465 62.5157 139.949 66.1295 131 64C142.165 60.4682 157.43 59.0802 160 45C154.201 45.9978 148.942 48.5146 143 49C148.909 45.5635 158.686 42.9384 161.4 35.9097C162.336 33.4884 161.998 30.5443 162 28C158.059 30.5231 154.272 33.0555 150 35C155.631 29.1484 165.853 21.3737 159 13z"/>
<path style="fill:#3651b7; stroke:none;" d="M116 14L117 15L116 14M142 14L143 15L142 14M144 14L145 15L144 14z"/>
<path style="fill:#bdb3ac; stroke:none;" d="M146.333 15.6667C146.278 15.7221 146.222 16.7779 146.667 16.3333C146.722 16.2777 146.778 15.2223 146.333 15.6667z"/>
<path style="fill:#3651b7; stroke:none;" d="M150 15L151 16L150 15M157 15L158 16L157 15z"/>
<path style="fill:#bdb3ac; stroke:none;" d="M142 16C141.014 17.4785 141 17.2032 141 19C142.289 17.5574 142.401 17.7662 142 16z"/>
<path style="fill:#3651b7; stroke:none;" d="M143 16L144 17L143 16M149 16L148 18C149.263 17.0287 149.392 17.3063 149 16z"/>
<path style="fill:#bdb3ac; stroke:none;" d="M161 16L162 19C162.401 17.2338 162.289 17.4426 161 16M149 17L150 18L149 17M153 17C152.043 18.5166 151.613 19.3385 151 21C152.576 19.6305 153.473 18.9909 153 17z"/>
<path style="fill:#3651b7; stroke:none;" d="M156 17L157 18L156 17M161 17L162 18L161 17M142 18L143 19L142 18M147 18L148 19L147 18M141 19L142 20L141 19M111 20L112 21L111 20z"/>
<path style="fill:#93877d; stroke:none;" d="M140 20L141 21L140 20z"/>
<path style="fill:#3651b7; stroke:none;" d="M146 20L147 21L146 20M140 21L141 22L140 21M144 22L145 23L144 22M148 23L149 24L148 23z"/>
<path style="fill:#bdb3ac; stroke:none;" d="M149 23L150 24L149 23z"/>
<path style="fill:#3651b7; stroke:none;" d="M160 23L161 24L160 23M143 24L144 25L143 24z"/>
<path style="fill:#bdb3ac; stroke:none;" d="M146 24C146.545 25.6352 146.365 25.4549 148 26C147.455 24.3649 147.635 24.545 146 24z"/>
<path style="fill:#151517; stroke:none;" d="M147 24L148 25L147 24z"/>
<path style="fill:#3651b7; stroke:none;" d="M151 24L152 25L151 24z"/>
<path style="fill:#bdb3ac; stroke:none;" d="M160 24L161 25L160 24z"/>
<path style="fill:#151517; stroke:none;" d="M146 25L147 26L146 25z"/>
<path style="fill:#3651b7; stroke:none;" d="M158 25L157 27C158.263 26.0287 158.392 26.3063 158 25z"/>
<path style="fill:#bdb3ac; stroke:none;" d="M159 25L160 26L159 25z"/>
<path style="fill:#3651b7; stroke:none;" d="M103 26L102 28L104 28C104 26.1467 104.3 26.6499 103 26M141 26L142 27L141 26M143 30C144.752 28.6698 145.67 27.7525 147 26C144.751 27.1536 144.154 27.7511 143 30z"/>
<path style="fill:#bdb3ac; stroke:none;" d="M158 26L159 27L158 26M148 27L149 28L148 27M100 28L101 29L100 28z"/>
<path style="fill:#3651b7; stroke:none;" d="M101 28L102 29L101 28z"/>
<path style="fill:#bdb3ac; stroke:none;" d="M140 28L141 29L140 28z"/>
<path style="fill:#3651b7; stroke:none;" d="M148 28L149 29L148 28M155 28L156 29L155 28z"/>
<path style="fill:#bdb3ac; stroke:none;" d="M160 28L161 29L160 28z"/>
<path style="fill:#3651b7; stroke:none;" d="M100 29L101 30L100 29M138 29L139 30L138 29z"/>
<path style="fill:#bdb3ac; stroke:none;" d="M141 29L142 30L141 29M144 29L145 30L144 29z"/>
<path style="fill:#3651b7; stroke:none;" d="M147 29L148 30L147 29M102 30L103 31L102 30M16 239L20 240C24.4145 223.117 30.9418 207.217 37.2546 191C50.5342 156.886 67.6626 123.028 89.321 93.4244C100.98 77.4879 115.016 63.8743 127.884 48.9961C133.002 43.0791 139.724 37.1337 143 30C137.008 32.8138 132.557 38.7542 127.92 43.4105C118.89 52.4769 109.748 61.1776 101.339 70.8302C73.8334 102.403 56.173 137.618 39.831 175.83C31.0741 196.307 21.8757 217.465 16 239z"/>
<path style="fill:#bdb3ac; stroke:none;" d="M157 30L158 31L157 30z"/>
<path style="fill:#3651b7; stroke:none;" d="M97 31L98 32L97 31M137 31L138 32L137 31z"/>
<path style="fill:#bdb3ac; stroke:none;" d="M145 31L146 32L145 31z"/>
<path style="fill:#3651b7; stroke:none;" d="M153 31L154 32L153 31M157 31L158 32L157 31M96 32L97 33L96 32z"/>
<path style="fill:#bdb3ac; stroke:none;" d="M102.333 32.6667C102.278 32.7222 102.222 33.7778 102.667 33.3333C102.722 33.2777 102.778 32.2223 102.333 32.6667M105 32L106 33L105 32z"/>
<path style="fill:#3651b7; stroke:none;" d="M106 32L107 33L106 32z"/>
<path style="fill:#bdb3ac; stroke:none;" d="M136 32L134 36C136.357 34.8964 137.376 34.0436 139 32L136 32M142 32L143 33L142 32z"/>
<path style="fill:#3651b7; stroke:none;" d="M145 32L146 33L145 32z"/>
<path style="fill:#bdb3ac; stroke:none;" d="M152 32L152 34C153.635 33.455 153.455 33.6351 154 32L152 32z"/>
<path style="fill:#3651b7; stroke:none;" d="M135 33L136 34L135 33z"/>
<path style="fill:#93877d; stroke:none;" d="M151.333 33.6667C151.278 33.7222 151.222 34.7778 151.667 34.3333C151.722 34.2777 151.778 33.2223 151.333 33.6667z"/>
<path style="fill:#3651b7; stroke:none;" d="M153 33L154 34L153 33z"/>
<path style="fill:#bdb3ac; stroke:none;" d="M93 34L94 35L93 34z"/>
<path style="fill:#3651b7; stroke:none;" d="M94 34L95 35L94 34M105 34L106 35L105 34M134 34L135 35L134 34M150 34L151 35L150 34M93 35L94 36L93 35M133 35L134 36L133 35z"/>
<path style="fill:#bdb3ac; stroke:none;" d="M142 35L143 36L142 35z"/>
<path style="fill:#3651b7; stroke:none;" d="M101 36L102 37L101 36z"/>
<path style="fill:#bdb3ac; stroke:none;" d="M104 36L105 37L104 36z"/>
<path style="fill:#151517; stroke:none;" d="M135 36L136 37L135 36z"/>
<path style="fill:#3651b7; stroke:none;" d="M142 36L143 37L142 36z"/>
<path style="fill:#bdb3ac; stroke:none;" d="M90 37L91 38L90 37z"/>
<path style="fill:#3651b7; stroke:none;" d="M104 37L105 38L104 37M131 37L132 38L131 37M140 38L141 39L140 38M89 39L90 40L89 39M158 39L157 41C158.263 40.0287 158.392 40.3063 158 39M127 40L128 41L127 40M139 40L140 41L139 40z"/>
<path style="fill:#bdb3ac; stroke:none;" d="M158 40L159 41L158 40z"/>
<path style="fill:#3651b7; stroke:none;" d="M103 41L104 42L103 41z"/>
<path style="fill:#bdb3ac; stroke:none;" d="M157 41L158 42L157 41z"/>
<path style="fill:#3651b7; stroke:none;" d="M100 42L101 43L100 42z"/>
<path style="fill:#bdb3ac; stroke:none;" d="M128 42L129 43L128 42z"/>
<path style="fill:#151517; stroke:none;" d="M129 42L130 43L129 42z"/>
<path style="fill:#bdb3ac; stroke:none;" d="M136 42L137 43L136 42z"/>
<path style="fill:#3651b7; stroke:none;" d="M137 42L138 43L137 42z"/>
<path style="fill:#bdb3ac; stroke:none;" d="M160 42L161 43L160 42M86 43L87 44L86 43z"/>
<path style="fill:#3651b7; stroke:none;" d="M102 43L103 44L102 43M124 43L125 44L124 43M153 43L154 44L153 43M86 44L87 45L86 44M123 44L124 45L123 44z"/>
<path style="fill:#bdb3ac; stroke:none;" d="M126 44L127 45L126 44z"/>
<path style="fill:#3651b7; stroke:none;" d="M135 44L136 45L135 44z"/>
<path style="fill:#bdb3ac; stroke:none;" d="M157 44L158 45L157 44z"/>
<path style="fill:#3651b7; stroke:none;" d="M158.667 44.3333C158.222 44.7778 159.278 44.7222 159.333 44.6667C159.778 44.2222 158.722 44.2778 158.667 44.3333M100 45L101 46L100 45M149 45L150 46L149 45M155 45L156 46L155 45M85 46L86 47L85 46z"/>
<path style="fill:#bdb3ac; stroke:none;" d="M124 46L125 47L124 46z"/>
<path style="fill:#151517; stroke:none;" d="M129 46L130 47L129 46z"/>
<path style="fill:#3651b7; stroke:none;" d="M147 46L148 47L147 46z"/>
<path style="fill:#bdb3ac; stroke:none;" d="M147 48C148.58 47.3165 148.777 47.1951 150 46C148.42 46.6836 148.223 46.8048 147 48M151 46L150 48C151.263 47.0287 151.392 47.3063 151 46z"/>
<path style="fill:#3651b7; stroke:none;" d="M154 46L155 47L154 46M80 47L81 48L80 47z"/>
<path style="fill:#bdb3ac; stroke:none;" d="M100 47L100 51C100.71 49.2405 100.71 48.7595 100 47z"/>
<path style="fill:#3651b7; stroke:none;" d="M101 47L102 48L101 47M119 47L120 48L119 47z"/>
<path style="fill:#151517; stroke:none;" d="M124 47L125 48L124 47z"/>
<path style="fill:#3651b7; stroke:none;" d="M145 47L146 48L145 47z"/>
<path style="fill:#93877d; stroke:none;" d="M146.333 47.6667C146.278 47.7222 146.222 48.7778 146.667 48.3333C146.722 48.2778 146.778 47.2223 146.333 47.6667z"/>
<path style="fill:#3651b7; stroke:none;" d="M151 47L152 48L151 47M99 48L99 53C100.205 50.9024 100.143 50.1545 99 48M132 48L133 49L132 48M143 48L144 49L143 48z"/>
<path style="fill:#bdb3ac; stroke:none;" d="M144.667 48.3333C144.222 48.7778 145.278 48.7222 145.333 48.6667C145.778 48.2222 144.722 48.2778 144.667 48.3333z"/>
<path style="fill:#3651b7; stroke:none;" d="M147 48L148 49L147 48M159 48L160 49L159 48M84 49L85 50L84 49z"/>
<path style="fill:#bdb3ac; stroke:none;" d="M121 49L122 50L121 49z"/>
<path style="fill:#151517; stroke:none;" d="M141 49L142 50L141 49z"/>
<path style="fill:#3651b7; stroke:none;" d="M142 49L143 50L142 49M116 50L117 51L116 50z"/>
<path style="fill:#bdb3ac; stroke:none;" d="M120 50L121 51L120 50M76 51L77 52L76 51z"/>
<path style="fill:#3651b7; stroke:none;" d="M83 51L84 52L83 51M76 52L77 53L76 52z"/>
<path style="fill:#bdb3ac; stroke:none;" d="M125 52L126 53L125 52z"/>
<path style="fill:#3651b7; stroke:none;" d="M156 52L157 53L156 52z"/>
<path style="fill:#bdb3ac; stroke:none;" d="M74.6667 53.3333C74.2222 53.7778 75.2778 53.7222 75.3333 53.6667C75.7778 53.2222 74.7222 53.2778 74.6667 53.3333z"/>
<path style="fill:#3651b7; stroke:none;" d="M81.3333 53.6667C81.2778 53.7222 81.2222 54.7778 81.6667 54.3333C81.7222 54.2778 81.7778 53.2222 81.3333 53.6667z"/>
<path style="fill:#bdb3ac; stroke:none;" d="M127 53L128 54L127 53z"/>
<path style="fill:#3651b7; stroke:none;" d="M128 53L129 54L128 53M155 53L156 54L155 53M127 54L128 55L127 54M73 56L74 57L73 56M82 57L83 58L82 57M124.667 57.3333C124.222 57.7778 125.278 57.7222 125.333 57.6667C125.778 57.2223 124.722 57.2777 124.667 57.3333M71 58L72 59L71 58M80.3333 58.6667C80.2778 58.7222 80.2222 59.7778 80.6667 59.3333C80.7223 59.2777 80.7778 58.2223 80.3333 58.6667z"/>
<path style="fill:#bdb3ac; stroke:none;" d="M81 58L82 59L81 58z"/>
<path style="fill:#3651b7; stroke:none;" d="M108 58L109 59L108 58z"/>
<path style="fill:#bdb3ac; stroke:none;" d="M122.667 58.3333C122.222 58.7778 123.278 58.7222 123.333 58.6667C123.778 58.2222 122.722 58.2778 122.667 58.3333z"/>
<path style="fill:#3651b7; stroke:none;" d="M148.667 58.3333C148.222 58.7778 149.278 58.7222 149.333 58.6667C149.778 58.2222 148.722 58.2778 148.667 58.3333z"/>
<path style="fill:#93877d; stroke:none;" d="M81 59C80.4379 62.025 80.0636 64.9221 80 68C81.6805 65.1438 82.2775 62.1111 81 59z"/>
<path style="fill:#3651b7; stroke:none;" d="M107 59L108 60L107 59z"/>
<path style="fill:#bdb3ac; stroke:none;" d="M118 59L119 60L118 59M154 59L155 60L154 59M69 60L70 61L69 60M80.3333 60.6667C80.2778 60.7222 80.2222 61.7778 80.6667 61.3333C80.7223 61.2777 80.7777 60.2223 80.3333 60.6667M117 60L118 61L117 60z"/>
<path style="fill:#3651b7; stroke:none;" d="M154 60L155 61L154 60M105 61L106 62L105 61z"/>
<path style="fill:#bdb3ac; stroke:none;" d="M109 61L110 62L109 61z"/>
<path style="fill:#3651b7; stroke:none;" d="M141 61L142 62L141 61z"/>
<path style="fill:#bdb3ac; stroke:none;" d="M81 62L82 63L81 62M105 62L106 63L105 62M119 62L120 63L119 62z"/>
<path style="fill:#3651b7; stroke:none;" d="M120 62L121 63L120 62z"/>
<path style="fill:#151517; stroke:none;" d="M137 62L138 63L137 62z"/>
<path style="fill:#bdb3ac; stroke:none;" d="M138.667 62.3333C138.222 62.7778 139.278 62.7222 139.333 62.6667C139.778 62.2222 138.722 62.2778 138.667 62.3333M148 62L149 63L148 62z"/>
<path style="fill:#3651b7; stroke:none;" d="M149 62L150 63L149 62M68 63L69 64L68 63z"/>
<path style="fill:#bdb3ac; stroke:none;" d="M104 63L105 64L104 63M107 63L108 64L107 63z"/>
<path style="fill:#3651b7; stroke:none;" d="M119 63L120 64L119 63M131 63C131.545 64.6352 131.365 64.455 133 65C132.455 63.3649 132.635 63.545 131 63z"/>
<path style="fill:#93877d; stroke:none;" d="M132 63C133.85 64.3789 134.408 64.715 136 63L132 63z"/>
<path style="fill:#3651b7; stroke:none;" d="M134 63L135 64L134 63z"/>
<path style="fill:#bdb3ac; stroke:none;" d="M136.667 63.3333C136.222 63.7778 137.278 63.7222 137.333 63.6667C137.778 63.2223 136.722 63.2777 136.667 63.3333M146 63L147 64L146 63z"/>
<path style="fill:#3651b7; stroke:none;" d="M147 63L148 64L147 63M154 63L155 64L154 63z"/>
<path style="fill:#bdb3ac; stroke:none;" d="M66 64L67 65L66 64z"/>
<path style="fill:#3651b7; stroke:none;" d="M102 64L103 65L102 64z"/>
<path style="fill:#bdb3ac; stroke:none;" d="M106 64L107 65L106 64M113 64L114 65L113 64z"/>
<path style="fill:#151517; stroke:none;" d="M136 64C137.248 64.6848 137.549 64.7488 139 65C137.752 64.3152 137.452 64.2512 136 64z"/>
<path style="fill:#bdb3ac; stroke:none;" d="M139 64C140.248 64.6848 140.549 64.7488 142 65C140.752 64.3152 140.452 64.2512 139 64z"/>
<path style="fill:#3651b7; stroke:none;" d="M143 64L144 65L143 64M81.3333 65.6667C81.2778 65.7222 81.2222 66.7778 81.6667 66.3333C81.7223 66.2777 81.7777 65.2223 81.3333 65.6667z"/>
<path style="fill:#bdb3ac; stroke:none;" d="M110.667 67.3333C110.222 67.7778 111.278 67.7222 111.333 67.6667C111.778 67.2223 110.722 67.2777 110.667 67.3333z"/>
<path style="fill:#3651b7; stroke:none;" d="M153 67L154 68L153 67z"/>
<path style="fill:#bdb3ac; stroke:none;" d="M64 68L63 70C64.2627 69.0287 64.3919 69.3062 64 68z"/>
<path style="fill:#151517; stroke:none;" d="M80 68L81 69L80 68z"/>
<path style="fill:#3651b7; stroke:none;" d="M64 69L65 70L64 69M114 69L115 70L114 69M113 70L114 71L113 70M152 70L153 71L152 70z"/>
<path style="fill:#bdb3ac; stroke:none;" d="M153 70L154 71L153 70z"/>
<path style="fill:#3651b7; stroke:none;" d="M96 71L97 72L96 71z"/>
<path style="fill:#bdb3ac; stroke:none;" d="M100 71L99 73C100.263 72.0287 100.392 72.3062 100 71M96 72L97 73L96 72z"/>
<path style="fill:#151517; stroke:none;" d="M100 72L101 73L100 72z"/>
<path style="fill:#3651b7; stroke:none;" d="M111 72L112 73L111 72z"/>
<path style="fill:#bdb3ac; stroke:none;" d="M61 73L62 74L61 73z"/>
<path style="fill:#3651b7; stroke:none;" d="M109 74L110 75L109 74z"/>
<path style="fill:#bdb3ac; stroke:none;" d="M107 75L106 77C107.263 76.0287 107.392 76.3063 107 75M151 75L152 76L151 75z"/>
<path style="fill:#3651b7; stroke:none;" d="M60 76L61 77L60 76M92 76L93 77L92 76M107 76L108 77L107 76z"/>
<path style="fill:#bdb3ac; stroke:none;" d="M92 77L93 78L92 77z"/>
<path style="fill:#3651b7; stroke:none;" d="M106 77L107 78L106 77M59 78L60 79L59 78M149 78L150 79L149 78z"/>
<path style="fill:#bdb3ac; stroke:none;" d="M93 79L94 80L93 79z"/>
<path style="fill:#3651b7; stroke:none;" d="M88 80L89 81L88 80z"/>
<path style="fill:#bdb3ac; stroke:none;" d="M99 80L100 81L99 80M103 80L104 81L103 80z"/>
<path style="fill:#3651b7; stroke:none;" d="M57 81L58 82L57 81z"/>
<path style="fill:#bdb3ac; stroke:none;" d="M91 81L92 82L91 81z"/>
<path style="fill:#3651b7; stroke:none;" d="M87 82L88 83L87 82M101 83L102 84L101 83z"/>
<path style="fill:#bdb3ac; stroke:none;" d="M89 84L90 85L89 84z"/>
<path style="fill:#3651b7; stroke:none;" d="M146 84L147 85L146 84M55 85L56 86L55 85z"/>
<path style="fill:#bdb3ac; stroke:none;" d="M95 85L94 87L96 87C96 85.1467 96.2997 85.6499 95 85z"/>
<path style="fill:#3651b7; stroke:none;" d="M99 85L100 86L99 85M54 87L55 88L54 87M97 87L98 88L97 87z"/>
<path style="fill:#bdb3ac; stroke:none;" d="M86 88L87 89L86 88M93 88L94 89L93 88z"/>
<path style="fill:#3651b7; stroke:none;" d="M143 88L144 89L143 88z"/>
<path style="fill:#bdb3ac; stroke:none;" d="M53 89L54 90L53 89z"/>
<path style="fill:#3651b7; stroke:none;" d="M96 89L97 90L96 89M80 90L81 91L80 90M52 93L53 94L52 93z"/>
<path style="fill:#151517; stroke:none;" d="M88 93L89 94L88 93z"/>
<path style="fill:#bdb3ac; stroke:none;" d="M92 93L93 94L92 93z"/>
<path style="fill:#3651b7; stroke:none;" d="M93 93L94 94L93 93z"/>
<path style="fill:#bdb3ac; stroke:none;" d="M141 93L141 95C142.635 94.4549 142.455 94.6352 143 93L141 93z"/>
<path style="fill:#3651b7; stroke:none;" d="M77 94L78 95L77 94z"/>
<path style="fill:#151517; stroke:none;" d="M82 94L83 95L82 94z"/>
<path style="fill:#3651b7; stroke:none;" d="M133 94C131.723 95.915 131.723 95.085 133 97C133.713 95.6521 133.805 95.2706 133 94z"/>
<path style="fill:#bdb3ac; stroke:none;" d="M135 94L136 95L135 94M138 94L139 95L138 94M77 95L78 96L77 95z"/>
<path style="fill:#3651b7; stroke:none;" d="M91 95L92 96L91 95z"/>
<path style="fill:#bdb3ac; stroke:none;" d="M133.667 95.3333C133.222 95.7778 134.278 95.7222 134.333 95.6667C134.778 95.2222 133.722 95.2777 133.667 95.3333M136 95L137 96L136 95M130 96C131.248 96.6847 131.549 96.7488 133 97C131.752 96.3152 131.452 96.2512 130 96z"/>
<path style="fill:#3651b7; stroke:none;" d="M75 97L76 98L75 97z"/>
<path style="fill:#bdb3ac; stroke:none;" d="M79 97L80 98L79 97z"/>
<path style="fill:#3651b7; stroke:none;" d="M90 97L91 98L90 97z"/>
<path style="fill:#151517; stroke:none;" d="M128 97L129 98L128 97z"/>
<path style="fill:#3651b7; stroke:none;" d="M130.667 97.3333C130.222 97.7778 131.278 97.7222 131.333 97.6667C131.778 97.2222 130.722 97.2777 130.667 97.3333M137 97L138 98L137 97M51 98L52 99L51 98z"/>
<path style="fill:#bdb3ac; stroke:none;" d="M88 98L89 99L88 98z"/>
<path style="fill:#3651b7; stroke:none;" d="M135 98L134 100C135.263 99.0287 135.392 99.3063 135 98z"/>
<path style="fill:#bdb3ac; stroke:none;" d="M85 99L86 100L85 99z"/>
<path style="fill:#3651b7; stroke:none;" d="M88 99L89 100L88 99z"/>
<path style="fill:#bdb3ac; stroke:none;" d="M135 99L136 100L135 99z"/>
<path style="fill:#3651b7; stroke:none;" d="M73 100L74 101L73 100z"/>
<path style="fill:#151517; stroke:none;" d="M78 100L79 101L78 100z"/>
<path style="fill:#3651b7; stroke:none;" d="M132 100L133 101L132 100z"/>
<path style="fill:#151517; stroke:none;" d="M77 101L78 102L77 101z"/>
<path style="fill:#3651b7; stroke:none;" d="M72 102L73 103L72 102z"/>
<path style="fill:#bdb3ac; stroke:none;" d="M130 102L128 103C129.453 103.555 130.076 103.604 130 102M133 102L134 103L133 102z"/>
<path style="fill:#151517; stroke:none;" d="M135 102L136 103L135 102z"/>
<path style="fill:#3651b7; stroke:none;" d="M71 103L72 104L71 103z"/>
<path style="fill:#bdb3ac; stroke:none;" d="M75 103L76 104L75 103z"/>
<path style="fill:#3651b7; stroke:none;" d="M125 104C126.506 104.683 127.315 104.826 129 105C127.276 103.944 127.079 103.964 125 104M130 103L131 104L130 103z"/>
<path style="fill:#bdb3ac; stroke:none;" d="M74 104L75 105L74 104M84 104L85 105L84 104z"/>
<path style="fill:#3651b7; stroke:none;" d="M85 104L86 105L85 104M70 105L71 106L70 105z"/>
<path style="fill:#bdb3ac; stroke:none;" d="M81 105L82 106L81 105M83 105L84 106L83 105M135 105L136 106L135 105z"/>
<path style="fill:#3651b7; stroke:none;" d="M69 106L70 107L69 106M83 106L84 107L83 106M50 107L51 108L50 107M133 107L134 108L133 107z"/>
<path style="fill:#bdb3ac; stroke:none;" d="M49.3333 108.667C49.2778 108.722 49.2222 109.778 49.6667 109.333C49.7222 109.278 49.7778 108.222 49.3333 108.667z"/>
<path style="fill:#3651b7; stroke:none;" d="M68 108L69 109L68 108M47 109C46.7618 111.095 46.8159 112.889 47 115C47.9511 112.715 47.9511 111.285 47 109z"/>
<path style="fill:#bdb3ac; stroke:none;" d="M71 109L72 110L71 109z"/>
<path style="fill:#3651b7; stroke:none;" d="M131 110L132 111L131 110z"/>
<path style="fill:#151517; stroke:none;" d="M49.3333 111.667C49.2777 111.722 49.2222 112.778 49.6667 112.333C49.7222 112.278 49.7778 111.222 49.3333 111.667z"/>
<path style="fill:#bdb3ac; stroke:none;" d="M67 111L68 112L67 111M70 111L71 112L70 111z"/>
<path style="fill:#3651b7; stroke:none;" d="M45 112L46 113L45 112M129 112L130 113L129 112z"/>
<path style="fill:#bdb3ac; stroke:none;" d="M49 113L49 123C50.3457 119.793 50.3457 116.207 49 113z"/>
<path style="fill:#3651b7; stroke:none;" d="M65 113L66 114L65 113M127 114L128 115L127 114M77 115L78 116L77 115M126 115L125 117C126.263 116.029 126.392 116.306 126 115z"/>
<path style="fill:#bdb3ac; stroke:none;" d="M42 116L43 117L42 116M74 116L75 117L74 116M126 116L127 117L126 116z"/>
<path style="fill:#3651b7; stroke:none;" d="M63 117L64 118L63 117z"/>
<path style="fill:#bdb3ac; stroke:none;" d="M64 117L65 118L64 117z"/>
<path style="fill:#3651b7; stroke:none;" d="M76 117L77 118L76 117z"/>
<path style="fill:#bdb3ac; stroke:none;" d="M63 118L64 119L63 118M75 118L74 120C75.2627 119.029 75.3919 119.306 75 118z"/>
<path style="fill:#3651b7; stroke:none;" d="M62 119L63 120L62 119z"/>
<path style="fill:#151517; stroke:none;" d="M66 119L67 120L66 119z"/>
<path style="fill:#3651b7; stroke:none;" d="M75 119L76 120L75 119z"/>
<path style="fill:#bdb3ac; stroke:none;" d="M71 120L71 122C72.6352 121.455 72.4549 121.635 73 120L71 120z"/>
<path style="fill:#3651b7; stroke:none;" d="M74 120L75 121L74 120M120 120L121 121L120 120z"/>
<path style="fill:#bdb3ac; stroke:none;" d="M73 121L74 122L73 121z"/>
<path style="fill:#3651b7; stroke:none;" d="M118 121L119 122L118 121z"/>
<path style="fill:#bdb3ac; stroke:none;" d="M119.667 121.333C119.222 121.778 120.278 121.722 120.333 121.667C120.778 121.222 119.722 121.278 119.667 121.333z"/>
<path style="fill:#3651b7; stroke:none;" d="M73 122L74 123L73 122M116 122L115 124C116.263 123.029 116.392 123.306 116 122z"/>
<path style="fill:#bdb3ac; stroke:none;" d="M118 122L119 123L118 122M38 123L39 124L38 123z"/>
<path style="fill:#3651b7; stroke:none;" d="M39 123L40 124L39 123M49.3333 123.667C49.2777 123.722 49.2223 124.778 49.6667 124.333C49.7222 124.278 49.7778 123.222 49.3333 123.667z"/>
<path style="fill:#bdb3ac; stroke:none;" d="M72 123L71 125C72.2627 124.029 72.3919 124.306 72 123M116 123L117 124L116 123z"/>
<path style="fill:#3651b7; stroke:none;" d="M72 124L73 125L72 124M114 124L115 125L114 124M59 125L60 126L59 125M71 125L72 126L71 125M37 126L38 127L37 126z"/>
<path style="fill:#bdb3ac; stroke:none;" d="M70 126L71 127L70 126M110 126L111 127L110 126M49.3333 127.667C49.2778 127.722 49.2223 128.778 49.6667 128.333C49.7222 128.278 49.7778 127.222 49.3333 127.667z"/>
<path style="fill:#3651b7; stroke:none;" d="M70 127L71 128L70 127M48 128L49 129L48 128z"/>
<path style="fill:#151517; stroke:none;" d="M50 128L51 129L50 128z"/>
<path style="fill:#bdb3ac; stroke:none;" d="M107 128L108 129L107 128z"/>
<path style="fill:#93877d; stroke:none;" d="M49 129L49 133C50.0732 131.118 50.084 130.862 49 129z"/>
<path style="fill:#3651b7; stroke:none;" d="M50 129L51 130L50 129z"/>
<path style="fill:#bdb3ac; stroke:none;" d="M60 129L61 130L60 129M66 129L67 130L66 129z"/>
<path style="fill:#3651b7; stroke:none;" d="M35 130L36 131L35 130z"/>
<path style="fill:#bdb3ac; stroke:none;" d="M57 130L58 131L57 130z"/>
<path style="fill:#3651b7; stroke:none;" d="M68 130L69 131L68 130M99 130L100 131L99 130M101 130L102 131L101 130z"/>
<path style="fill:#bdb3ac; stroke:none;" d="M50.3333 131.667C50.2777 131.722 50.2222 132.778 50.6667 132.333C50.7222 132.278 50.7778 131.222 50.3333 131.667z"/>
<path style="fill:#3651b7; stroke:none;" d="M56 131L57 132L56 131M97.6667 131.333C97.2222 131.778 98.2778 131.722 98.3333 131.667C98.7777 131.222 97.7222 131.278 97.6667 131.333M34 132L35 133L34 132M93 132L94 133L93 132z"/>
<path style="fill:#bdb3ac; stroke:none;" d="M94.6667 132.333C94.2222 132.778 95.2778 132.722 95.3333 132.667C95.7777 132.222 94.7222 132.278 94.6667 132.333z"/>
<path style="fill:#3651b7; stroke:none;" d="M50 133L51 134L50 133z"/>
<path style="fill:#151517; stroke:none;" d="M63 133L64 134L63 133z"/>
<path style="fill:#3651b7; stroke:none;" d="M82.6667 133.333C82.2222 133.778 83.2778 133.722 83.3333 133.667C83.7778 133.222 82.7222 133.278 82.6667 133.333z"/>
<path style="fill:#bdb3ac; stroke:none;" d="M84 133C85.506 133.683 86.3148 133.826 88 134C86.4939 133.317 85.6852 133.174 84 133z"/>
<path style="fill:#3651b7; stroke:none;" d="M88 133C89.2484 133.685 89.5484 133.749 91 134C89.7517 133.315 89.4515 133.251 88 133M33 135L34 136L33 135M54 135L55 136L54 135z"/>
<path style="fill:#bdb3ac; stroke:none;" d="M57 135L58 136L57 135z"/>
<path style="fill:#3651b7; stroke:none;" d="M70.6667 135.333C70.2222 135.778 71.2778 135.722 71.3333 135.667C71.7777 135.222 70.7223 135.278 70.6667 135.333z"/>
<path style="fill:#bdb3ac; stroke:none;" d="M72.6667 135.333C72.2222 135.778 73.2778 135.722 73.3333 135.667C73.7778 135.222 72.7222 135.278 72.6667 135.333M83.6667 135.333C83.2222 135.778 84.2778 135.722 84.3333 135.667C84.7777 135.222 83.7222 135.278 83.6667 135.333z"/>
<path style="fill:#3651b7; stroke:none;" d="M32 136L33 137L32 136z"/>
<path style="fill:#93877d; stroke:none;" d="M69 136C70.506 136.683 71.3148 136.826 73 137C71.4939 136.317 70.6852 136.174 69 136z"/>
<path style="fill:#3651b7; stroke:none;" d="M84 136L85 137L84 136z"/>
<path style="fill:#bdb3ac; stroke:none;" d="M111 136L112 137L111 136M89 137L90 138L89 137z"/>
<path style="fill:#3651b7; stroke:none;" d="M107 137L108 138L107 137z"/>
<path style="fill:#151517; stroke:none;" d="M61 138L62 139L61 138z"/>
<path style="fill:#3651b7; stroke:none;" d="M64 138L65 139L64 138z"/>
<path style="fill:#151517; stroke:none;" d="M99.6667 138.333C99.2222 138.778 100.278 138.722 100.333 138.667C100.778 138.222 99.7222 138.278 99.6667 138.333z"/>
<path style="fill:#3651b7; stroke:none;" d="M104 138L105 139L104 138M52 139L53 140L52 139M63 139L64 140L63 139M112 139L113 140L112 139M31 140L32 141L31 140z"/>
<path style="fill:#151517; stroke:none;" d="M55 140L56 141L55 140z"/>
<path style="fill:#bdb3ac; stroke:none;" d="M60 140L61 141L60 140M62 140L63 141L62 140M112.333 140.667C112.278 140.722 112.222 141.778 112.667 141.333C112.722 141.278 112.778 140.222 112.333 140.667M54 141L55 142L54 141z"/>
<path style="fill:#3651b7; stroke:none;" d="M111 142L112 143L111 142M29 144L30 145L29 144z"/>
<path style="fill:#bdb3ac; stroke:none;" d="M53 144L54 145L53 144z"/>
<path style="fill:#3651b7; stroke:none;" d="M110 144L111 145L110 144z"/>
<path style="fill:#bdb3ac; stroke:none;" d="M111 144L112 145L111 144z"/>
<path style="fill:#3651b7; stroke:none;" d="M49 145L50 146L49 145z"/>
<path style="fill:#151517; stroke:none;" d="M53 145L54 146L53 145z"/>
<path style="fill:#3651b7; stroke:none;" d="M109 146L110 147L109 146z"/>
<path style="fill:#bdb3ac; stroke:none;" d="M49 147L50 148L49 147z"/>
<path style="fill:#3651b7; stroke:none;" d="M59 147L60 148L59 147M108 148L109 149L108 148z"/>
<path style="fill:#bdb3ac; stroke:none;" d="M109 148L110 149L109 148z"/>
<path style="fill:#3651b7; stroke:none;" d="M27 150L28 151L27 150M47 151L48 152L47 151z"/>
<path style="fill:#bdb3ac; stroke:none;" d="M49 151L50 152L49 151z"/>
<path style="fill:#3651b7; stroke:none;" d="M57 151L58 152L57 151z"/>
<path style="fill:#bdb3ac; stroke:none;" d="M107 151L108 152L107 151M56 152L57 153L56 152z"/>
<path style="fill:#3651b7; stroke:none;" d="M56 153L57 154L56 153M45 155L46 156L45 155z"/>
<path style="fill:#bdb3ac; stroke:none;" d="M52 157L55 156C53.2337 155.599 53.4426 155.711 52 157z"/>
<path style="fill:#93877d; stroke:none;" d="M51 159C52.9486 158.064 53.5502 157.608 55 156C53.0514 156.936 52.4498 157.392 51 159z"/>
<path style="fill:#3651b7; stroke:none;" d="M26 157L27 158L26 157z"/>
<path style="fill:#bdb3ac; stroke:none;" d="M47 157L48 158L47 157z"/>
<path style="fill:#151517; stroke:none;" d="M51 157L52 158L51 157z"/>
<path style="fill:#3651b7; stroke:none;" d="M54 157L55 158L54 157M103 157L104 158L103 157z"/>
<path style="fill:#bdb3ac; stroke:none;" d="M53 158L51 159C52.4531 159.555 53.0757 159.604 53 158M103 158L104 159L103 158z"/>
<path style="fill:#3651b7; stroke:none;" d="M53 159L54 160L53 159z"/>
<path style="fill:#93877d; stroke:none;" d="M51 160C47.3687 165.757 43.7018 172.141 43 179C48.1361 174.383 50.5008 166.351 53 160L51 160z"/>
<path style="fill:#bdb3ac; stroke:none;" d="M45 161L46 162L45 161M50 161L51 162L50 161z"/>
<path style="fill:#3651b7; stroke:none;" d="M99 161L100 162L99 161M98 162L99 163L98 162M96 163L97 164L96 163z"/>
<path style="fill:#bdb3ac; stroke:none;" d="M97.6667 163.333C97.2222 163.778 98.2778 163.722 98.3333 163.667C98.7778 163.222 97.7222 163.278 97.6667 163.333M96 164L97 165L96 164z"/>
<path style="fill:#3651b7; stroke:none;" d="M25 166L26 167L25 166M40 166L41 167L40 166z"/>
<path style="fill:#bdb3ac; stroke:none;" d="M24 167L25 168L24 167z"/>
<path style="fill:#3651b7; stroke:none;" d="M49 167L50 168L49 167M90 167L91 168L90 167z"/>
<path style="fill:#bdb3ac; stroke:none;" d="M40 168L41 169L40 168z"/>
<path style="fill:#3651b7; stroke:none;" d="M88 168L89 169L88 168z"/>
<path style="fill:#bdb3ac; stroke:none;" d="M24 170L25 171L24 170z"/>
<path style="fill:#3651b7; stroke:none;" d="M24.3333 171.667C24.2778 171.722 24.2222 172.778 24.6667 172.333C24.7222 172.278 24.7778 171.222 24.3333 171.667M38 171L39 172L38 171z"/>
<path style="fill:#bdb3ac; stroke:none;" d="M39 171L40 172L39 171z"/>
<path style="fill:#3651b7; stroke:none;" d="M83 171L84 172L83 171z"/>
<path style="fill:#bdb3ac; stroke:none;" d="M82.6667 172.333C82.2222 172.778 83.2778 172.722 83.3333 172.667C83.7778 172.222 82.7222 172.278 82.6667 172.333M88.6667 173.333C88.2222 173.778 89.2778 173.722 89.3333 173.667C89.7778 173.222 88.7222 173.278 88.6667 173.333z"/>
<path style="fill:#3651b7; stroke:none;" d="M37 174L38 175L37 174z"/>
<path style="fill:#151517; stroke:none;" d="M40 174L41 175L40 174z"/>
<path style="fill:#bdb3ac; stroke:none;" d="M79 174L80 175L79 174M21.6667 175.333C21.2222 175.778 22.2778 175.722 22.3333 175.667C22.7778 175.222 21.7222 175.278 21.6667 175.333z"/>
<path style="fill:#3651b7; stroke:none;" d="M86 175L87 176L86 175M71.6667 176.333C71.2222 176.778 72.2778 176.722 72.3333 176.667C72.7778 176.222 71.7222 176.278 71.6667 176.333z"/>
<path style="fill:#bdb3ac; stroke:none;" d="M73 176L74 177L73 176M81 178L84 177C82.2337 176.599 82.4426 176.711 81 178z"/>
<path style="fill:#3651b7; stroke:none;" d="M84.6667 176.333C84.2222 176.778 85.2778 176.722 85.3333 176.667C85.7778 176.222 84.7222 176.278 84.6667 176.333z"/>
<path style="fill:#151517; stroke:none;" d="M39 177L40 178L39 177M42 177L43 178L42 177z"/>
<path style="fill:#3651b7; stroke:none;" d="M45 177L46 178L45 177z"/>
<path style="fill:#bdb3ac; stroke:none;" d="M68 177L69 178L68 177z"/>
<path style="fill:#3651b7; stroke:none;" d="M82 177L83 178L82 177z"/>
<path style="fill:#02a3e8; stroke:none;" d="M21 178L22 179L21 178z"/>
<path style="fill:#bdb3ac; stroke:none;" d="M23 178L24 179L23 178z"/>
<path style="fill:#3651b7; stroke:none;" d="M35 178L36 179L35 178z"/>
<path style="fill:#bdb3ac; stroke:none;" d="M42 178C42.6836 179.58 42.8048 179.777 44 181C43.3164 179.42 43.1952 179.223 42 178z"/>
<path style="fill:#3651b7; stroke:none;" d="M44 178L45 179L44 178z"/>
<path style="fill:#93877d; stroke:none;" d="M61 178L60 180L62 180C62 178.147 62.2997 178.65 61 178z"/>
<path style="fill:#bdb3ac; stroke:none;" d="M62 178L63 179L62 178z"/>
<path style="fill:#3651b7; stroke:none;" d="M78 178L78 180C79.6351 179.455 79.4549 179.635 80 178L78 178z"/>
<path style="fill:#bdb3ac; stroke:none;" d="M21 179C20.0143 180.479 20 180.203 20 182C21.0817 180.616 21.1906 180.662 21 179z"/>
<path style="fill:#3651b7; stroke:none;" d="M58 179L59 180L58 179z"/>
<path style="fill:#151517; stroke:none;" d="M59 179L60 180L59 179z"/>
<path style="fill:#3651b7; stroke:none;" d="M73 179C74.5061 179.683 75.3148 179.826 77 180C75.4939 179.317 74.6852 179.174 73 179z"/>
<path style="fill:#151517; stroke:none;" d="M21 180L22 181L21 180z"/>
<path style="fill:#3651b7; stroke:none;" d="M23.3333 180.667C23.2778 180.722 23.2222 181.778 23.6667 181.333C23.7222 181.278 23.7778 180.222 23.3333 180.667z"/>
<path style="fill:#bdb3ac; stroke:none;" d="M35 180L36 181L35 180z"/>
<path style="fill:#93877d; stroke:none;" d="M41 180C39.0037 186.125 36.614 192.113 34 198C39.3919 196.112 40.76 188.176 41 183L43 184L43 180L41 180z"/>
<path style="fill:#bdb3ac; stroke:none;" d="M82 180L83 181L82 180M17 181C16.0143 182.479 16 182.203 16 184C17.2892 182.557 17.4009 182.766 17 181z"/>
<path style="fill:#3651b7; stroke:none;" d="M43 181L44 182L43 181M20 182L21 183L20 182z"/>
<path style="fill:#bdb3ac; stroke:none;" d="M80 182L81 183L80 182M21 183C21.077 185.645 20.9966 187.266 23 189C22.4394 186.898 21.9509 184.941 21 183M36 183L37 184L36 183M41.3333 183.667C41.2778 183.722 41.2222 184.778 41.6667 184.333C41.7222 184.278 41.7778 183.222 41.3333 183.667z"/>
<path style="fill:#3651b7; stroke:none;" d="M16 184L16 187L18 187C17.3164 185.42 17.1952 185.223 16 184z"/>
<path style="fill:#bdb3ac; stroke:none;" d="M35 184L36 185L35 184z"/>
<path style="fill:#151517; stroke:none;" d="M39 184L40 185L39 184z"/>
<path style="fill:#3651b7; stroke:none;" d="M77 184L78 185L77 184z"/>
<path style="fill:#02a3e8; stroke:none;" d="M16 185L17 186L16 185z"/>
<path style="fill:#bdb3ac; stroke:none;" d="M19 185L20 186L19 185z"/>
<path style="fill:#3651b7; stroke:none;" d="M41 185L42 186L41 185M32 186L33 187L32 186z"/>
<path style="fill:#151517; stroke:none;" d="M35 186L36 187L35 186z"/>
<path style="fill:#bdb3ac; stroke:none;" d="M17.3333 187.667C17.2778 187.722 17.2222 188.778 17.6667 188.333C17.7222 188.278 17.7778 187.222 17.3333 187.667z"/>
<path style="fill:#3651b7; stroke:none;" d="M19 187L20 188L19 187z"/>
<path style="fill:#bdb3ac; stroke:none;" d="M38 187L39 188L38 187z"/>
<path style="fill:#3651b7; stroke:none;" d="M74 187L75 188L74 187z"/>
<path style="fill:#bdb3ac; stroke:none;" d="M15.3333 188.667C15.2778 188.722 15.2222 189.778 15.6667 189.333C15.7222 189.278 15.7778 188.222 15.3333 188.667z"/>
<path style="fill:#3651b7; stroke:none;" d="M73 188L74 189L73 188M17 189L17 192C17.6961 190.446 17.6961 190.554 17 189z"/>
<path style="fill:#93877d; stroke:none;" d="M21 189L21 194L23 194L23 189L21 189z"/>
<path style="fill:#3651b7; stroke:none;" d="M31 189L32 190L31 189M72 189L73 190L72 189z"/>
<path style="fill:#bdb3ac; stroke:none;" d="M21 191L22 192L21 191z"/>
<path style="fill:#3651b7; stroke:none;" d="M70 191L71 192L70 191z"/>
<path style="fill:#151517; stroke:none;" d="M17 192L18 193L17 192z"/>
<path style="fill:#bdb3ac; stroke:none;" d="M22 192L23 193L22 192z"/>
<path style="fill:#3651b7; stroke:none;" d="M38 192L39 193L38 192z"/>
<path style="fill:#bdb3ac; stroke:none;" d="M69.6667 192.333C69.2222 192.778 70.2778 192.722 70.3333 192.667C70.7778 192.222 69.7222 192.278 69.6667 192.333z"/>
<path style="fill:#3651b7; stroke:none;" d="M15 193L16 194L15 193M21.6667 194.333C21.2222 194.778 22.2778 194.722 22.3333 194.667C22.7778 194.222 21.7222 194.278 21.6667 194.333M66 194L67 195L66 194z"/>
<path style="fill:#bdb3ac; stroke:none;" d="M29 195L30 196L29 195M31 195L32 196L31 195M35 195L36 196L35 195z"/>
<path style="fill:#3651b7; stroke:none;" d="M65 195L66 196L65 195M28 197L29 198L28 197z"/>
<path style="fill:#bdb3ac; stroke:none;" d="M30 197L31 198L30 197z"/>
<path style="fill:#3651b7; stroke:none;" d="M62 197L61 199C62.2627 198.029 62.3919 198.306 62 197M27 198L28 199L27 198z"/>
<path style="fill:#bdb3ac; stroke:none;" d="M34.6667 198.333C34.2222 198.778 35.2778 198.722 35.3333 198.667C35.7778 198.222 34.7222 198.278 34.6667 198.333z"/>
<path style="fill:#3651b7; stroke:none;" d="M36 198L37 199L36 198z"/>
<path style="fill:#bdb3ac; stroke:none;" d="M62 198L63 199L62 198M14.3333 199.667C14.2778 199.722 14.2222 200.778 14.6667 200.333C14.7222 200.278 14.7778 199.222 14.3333 199.667M18 199L19 200L18 199z"/>
<path style="fill:#3651b7; stroke:none;" d="M59 199L60 200L59 199z"/>
<path style="fill:#bdb3ac; stroke:none;" d="M61 199L62 200L61 199M67.6667 199.333C67.2222 199.778 68.2778 199.722 68.3333 199.667C68.7778 199.222 67.7222 199.278 67.6667 199.333z"/>
<path style="fill:#93877d; stroke:none;" d="M18 200L19 201L18 200z"/>
<path style="fill:#3651b7; stroke:none;" d="M35 200L36 201L35 200M58 200L59 201L58 200z"/>
<path style="fill:#151517; stroke:none;" d="M67 200L68 201L67 200z"/>
<path style="fill:#bdb3ac; stroke:none;" d="M33 201L34 202L33 201z"/>
<path style="fill:#151517; stroke:none;" d="M66 201L67 202L66 201z"/>
<path style="fill:#bdb3ac; stroke:none;" d="M55 202L56 203L55 202z"/>
<path style="fill:#02a3e8; stroke:none;" d="M65 202L66 203L65 202z"/>
<path style="fill:#151517; stroke:none;" d="M14 203L15 204L14 203z"/>
<path style="fill:#93877d; stroke:none;" d="M19 203L20 204L19 203z"/>
<path style="fill:#bdb3ac; stroke:none;" d="M28 203L29 204L28 203z"/>
<path style="fill:#3651b7; stroke:none;" d="M53 203L54 204L53 203z"/>
<path style="fill:#bdb3ac; stroke:none;" d="M62 203L63 204L62 203M14 204L15 205L14 204z"/>
<path style="fill:#3651b7; stroke:none;" d="M19 204L20 205L19 204z"/>
<path style="fill:#151517; stroke:none;" d="M31 204L32 205L31 204z"/>
<path style="fill:#3651b7; stroke:none;" d="M62 204L63 205L62 204M14 205L14 209C14.7102 207.241 14.7102 206.759 14 205z"/>
<path style="fill:#bdb3ac; stroke:none;" d="M50 205L51 206L50 205z"/>
<path style="fill:#3651b7; stroke:none;" d="M61 205L62 206L61 205M63 205L64 206L63 205M45 206L46 207L45 206z"/>
<path style="fill:#bdb3ac; stroke:none;" d="M46.6667 206.333C46.2222 206.778 47.2778 206.722 47.3333 206.667C47.7778 206.222 46.7222 206.278 46.6667 206.333M57.6667 206.333C57.2222 206.778 58.2778 206.722 58.3333 206.667C58.7778 206.222 57.7222 206.278 57.6667 206.333z"/>
<path style="fill:#3651b7; stroke:none;" d="M59 206L60 207L59 206z"/>
<path style="fill:#bdb3ac; stroke:none;" d="M63 206L64 207L63 206z"/>
<path style="fill:#3651b7; stroke:none;" d="M41 207L42 208L41 207M57 207L58 208L57 207z"/>
<path style="fill:#bdb3ac; stroke:none;" d="M24 208L25 209L24 208z"/>
<path style="fill:#3651b7; stroke:none;" d="M32 208L33 209L32 208M38 208L39 209L38 208z"/>
<path style="fill:#bdb3ac; stroke:none;" d="M54 208L55 209L54 208z"/>
<path style="fill:#3651b7; stroke:none;" d="M56 208L57 209L56 208M60 208L61 209L60 208z"/>
<path style="fill:#bdb3ac; stroke:none;" d="M154 208L155 209L154 208z"/>
<path style="fill:#3651b7; stroke:none;" d="M156.667 208.333C156.222 208.778 157.278 208.722 157.333 208.667C157.778 208.222 156.722 208.278 156.667 208.333z"/>
<path style="fill:#151517; stroke:none;" d="M13 279C33.8633 279 56.4842 270.614 74 259.456C91.0353 248.604 105.96 234.593 124 225.258C132.71 220.752 141.541 217.024 151 214.425C155.779 213.112 161.285 213.293 163 208C119.308 209.905 91.5699 248.446 54 264.54C44.3554 268.672 34.385 271.784 24 273.41C19.1353 274.171 14.0086 273.192 13 279z"/>
<path style="fill:#bdb3ac; stroke:none;" d="M13.3333 209.667C13.2778 209.722 13.2222 210.778 13.6667 210.333C13.7222 210.278 13.7778 209.222 13.3333 209.667z"/>
<path style="fill:#93877d; stroke:none;" d="M37 209L36 212C37.7663 211.021 37.9554 210.778 37 209z"/>
<path style="fill:#bdb3ac; stroke:none;" d="M38.3333 209.667C38.2778 209.722 38.2222 210.778 38.6667 210.333C38.7222 210.278 38.7778 209.222 38.3333 209.667z"/>
<path style="fill:#3651b7; stroke:none;" d="M44.6667 209.333C44.2222 209.778 45.2778 209.722 45.3333 209.667C45.7778 209.222 44.7222 209.278 44.6667 209.333z"/>
<path style="fill:#151517; stroke:none;" d="M46 209C47.2483 209.685 47.5484 209.749 49 210C47.7517 209.315 47.4516 209.251 46 209z"/>
<path style="fill:#bdb3ac; stroke:none;" d="M60 209L61 210L60 209M149.667 209.333C149.222 209.778 150.278 209.722 150.333 209.667C150.778 209.222 149.722 209.278 149.667 209.333z"/>
<path style="fill:#3651b7; stroke:none;" d="M151 209C152.248 209.685 152.548 209.749 154 210C152.752 209.315 152.452 209.251 151 209M23 210L24 211L23 210z"/>
<path style="fill:#bdb3ac; stroke:none;" d="M31 210L32 211L31 210z"/>
<path style="fill:#3651b7; stroke:none;" d="M35 210L36 211L35 210z"/>
<path style="fill:#bdb3ac; stroke:none;" d="M36 210L37 211L36 210M40 210L41 211L40 210z"/>
<path style="fill:#3651b7; stroke:none;" d="M41.6667 210.333C41.2222 210.778 42.2778 210.722 42.3333 210.667C42.7778 210.222 41.7222 210.278 41.6667 210.333M58 210L59 211L58 210z"/>
<path style="fill:#bdb3ac; stroke:none;" d="M25 211L26 212L25 211M29 211L30 212L29 211z"/>
<path style="fill:#3651b7; stroke:none;" d="M31 211L32 212L31 211z"/>
<path style="fill:#bdb3ac; stroke:none;" d="M35 211L36 212L35 211z"/>
<path style="fill:#3651b7; stroke:none;" d="M162 211L163 212L162 211M35 212L36 213L35 212z"/>
<path style="fill:#bdb3ac; stroke:none;" d="M57 212L58 213L57 212z"/>
<path style="fill:#3651b7; stroke:none;" d="M141 212L142 213L141 212M159 212L160 213L159 212z"/>
<path style="fill:#bdb3ac; stroke:none;" d="M160 212L161 213L160 212z"/>
<path style="fill:#3651b7; stroke:none;" d="M13 213L13 220C14.0595 217.466 14.0595 215.534 13 213M22 213L23 214L22 213z"/>
<path style="fill:#151517; stroke:none;" d="M25 213L26 214L25 213z"/>
<path style="fill:#3651b7; stroke:none;" d="M55 213L56 214L55 213M154 213L155 214L154 213z"/>
<path style="fill:#bdb3ac; stroke:none;" d="M155 213L156 214L155 213z"/>
<path style="fill:#151517; stroke:none;" d="M27 214L28 215L27 214z"/>
<path style="fill:#bdb3ac; stroke:none;" d="M28 214L29 215L28 214z"/>
<path style="fill:#3651b7; stroke:none;" d="M136 214L137 215L136 214z"/>
<path style="fill:#bdb3ac; stroke:none;" d="M153 214L154 215L153 214z"/>
<path style="fill:#3651b7; stroke:none;" d="M21 215L22 216L21 215M52 215L53 216L52 215z"/>
<path style="fill:#bdb3ac; stroke:none;" d="M132 215L133 216L132 215z"/>
<path style="fill:#3651b7; stroke:none;" d="M29 216L30 217L29 216M51 216L52 217L51 216M50 217L51 218L50 217z"/>
<path style="fill:#bdb3ac; stroke:none;" d="M127 217L128 218L127 217z"/>
<path style="fill:#3651b7; stroke:none;" d="M140 217L141 218L140 217z"/>
<path style="fill:#bdb3ac; stroke:none;" d="M142 217L143 218L142 217M28 218L29 219L28 218z"/>
<path style="fill:#3651b7; stroke:none;" d="M48 218L49 219L48 218M138 218L139 219L138 218z"/>
<path style="fill:#bdb3ac; stroke:none;" d="M139.667 218.333C139.222 218.778 140.278 218.722 140.333 218.667C140.778 218.222 139.722 218.278 139.667 218.333M26 219L27 220L26 219z"/>
<path style="fill:#3651b7; stroke:none;" d="M124.667 219.333C124.222 219.778 125.278 219.722 125.333 219.667C125.778 219.222 124.722 219.278 124.667 219.333M19 220L20 221L19 220z"/>
<path style="fill:#bdb3ac; stroke:none;" d="M22 220L23 221L22 220z"/>
<path style="fill:#3651b7; stroke:none;" d="M28 220L29 221L28 220z"/>
<path style="fill:#bdb3ac; stroke:none;" d="M121 220L122 221L121 220M135 220L136 221L135 220M21 221L22 222L21 221z"/>
<path style="fill:#3651b7; stroke:none;" d="M41 221L42 222L41 221z"/>
<path style="fill:#bdb3ac; stroke:none;" d="M119 221L120 222L119 221M13.3333 222.667C13.2778 222.722 13.2222 223.778 13.6667 223.333C13.7222 223.278 13.7778 222.222 13.3333 222.667M41 222L42 223L41 222z"/>
<path style="fill:#3651b7; stroke:none;" d="M37.6667 223.333C37.2222 223.778 38.2778 223.722 38.3333 223.667C38.7778 223.222 37.7222 223.278 37.6667 223.333M127 223L128 224L127 223M14 224L15 225L14 224M125 224L126 225L125 224M34 225L35 226L34 225M114 225L115 226L114 225M123 225L124 226L123 225M32.6667 226.333C32.2222 226.778 33.2778 226.722 33.3333 226.667C33.7778 226.222 32.7222 226.278 32.6667 226.333M112 226L113 227L112 226M17 227L18 228L17 227z"/>
<path style="fill:#bdb3ac; stroke:none;" d="M19 227L20 228L19 227z"/>
<path style="fill:#3651b7; stroke:none;" d="M31 227L30 229C31.2627 228.029 31.3919 228.306 31 227M119 227L120 228L119 227z"/>
<path style="fill:#bdb3ac; stroke:none;" d="M14 228L15 229L14 228z"/>
<path style="fill:#3651b7; stroke:none;" d="M15.6667 228.333C15.2222 228.778 16.2778 228.722 16.3333 228.667C16.7778 228.222 15.7222 228.278 15.6667 228.333z"/>
<path style="fill:#bdb3ac; stroke:none;" d="M31 228L32 229L31 228z"/>
<path style="fill:#3651b7; stroke:none;" d="M25 229C26.769 229.779 28.0359 229.912 30 230C28.231 229.221 26.9641 229.088 25 229M107 229L108 230L107 229M103 232L104 233L103 232z"/>
<path style="fill:#bdb3ac; stroke:none;" d="M111 233L112 234L111 233z"/>
<path style="fill:#3651b7; stroke:none;" d="M108 234L109 235L108 234z"/>
<path style="fill:#bdb3ac; stroke:none;" d="M109 234L110 235L109 234M97.6667 235.333C97.2222 235.778 98.2778 235.722 98.3333 235.667C98.7778 235.222 97.7222 235.278 97.6667 235.333M95 237L96 238L95 237M17 239L18 240L17 239z"/>
<path style="fill:#3651b7; stroke:none;" d="M92 240L93 241L92 240z"/>
<path style="fill:#bdb3ac; stroke:none;" d="M13 241L12 246L19 249L21 244C18.1369 243.516 15.7237 242.022 13 241z"/>
<path style="fill:#3651b7; stroke:none;" d="M98 241L99 242L98 241z"/>
<path style="fill:#bdb3ac; stroke:none;" d="M88.6667 242.333C88.2222 242.778 89.2777 242.722 89.3333 242.667C89.7778 242.222 88.7222 242.278 88.6667 242.333M86 244L87 245L86 244M95 244L96 245L95 244z"/>
<path style="fill:#3651b7; stroke:none;" d="M13 246L14 247L13 246M91 246L92 247L91 246z"/>
<path style="fill:#bdb3ac; stroke:none;" d="M92 246L93 247L92 246z"/>
<path style="fill:#3651b7; stroke:none;" d="M90 247L91 248L90 247z"/>
<path style="fill:#bdb3ac; stroke:none;" d="M11.6667 249.333C11.2222 249.778 12.2778 249.722 12.3333 249.667C12.7778 249.222 11.7222 249.278 11.6667 249.333M79 249L80 250L79 249z"/>
<path style="fill:#151517; stroke:none;" d="M8 277C14.5228 269.535 16.6916 262.717 18 253C4.42761 246.596 9.32882 269.838 8 277z"/>
<path style="fill:#bdb3ac; stroke:none;" d="M14 250L15 251L14 250M77 250L78 251L77 250M87 250L88 251L87 250M10 251L11 252L10 251z"/>
<path style="fill:#3651b7; stroke:none;" d="M83 252L84 253L83 252z"/>
<path style="fill:#bdb3ac; stroke:none;" d="M84 252L85 253L84 252M9 254L10 255L9 254M72 254L73 255L72 254z"/>
<path style="fill:#3651b7; stroke:none;" d="M9 255L10 256L9 255M79 255L80 256L79 255z"/>
<path style="fill:#bdb3ac; stroke:none;" d="M80 255L81 256L80 255z"/>
<path style="fill:#3651b7; stroke:none;" d="M17 256L18 257L17 256z"/>
<path style="fill:#bdb3ac; stroke:none;" d="M68 256L69 257L68 256z"/>
<path style="fill:#3651b7; stroke:none;" d="M69 256L70 257L69 256z"/>
<path style="fill:#bdb3ac; stroke:none;" d="M66.6667 257.333C66.2222 257.778 67.2778 257.722 67.3333 257.667C67.7778 257.222 66.7222 257.278 66.6667 257.333z"/>
<path style="fill:#3651b7; stroke:none;" d="M76 257L77 258L76 257z"/>
<path style="fill:#bdb3ac; stroke:none;" d="M17 259L18 260L17 259z"/>
<path style="fill:#3651b7; stroke:none;" d="M7 260L8 261L7 260M16 260L17 261L16 260M62 260L63 261L62 260M11 261L10 263C11.2627 262.029 11.3919 262.306 11 261z"/>
<path style="fill:#93877d; stroke:none;" d="M12 261L13 262L12 261z"/>
<path style="fill:#bdb3ac; stroke:none;" d="M59 261L60 262L59 261z"/>
<path style="fill:#3651b7; stroke:none;" d="M70 261L71 262L70 261z"/>
<path style="fill:#bdb3ac; stroke:none;" d="M11 262C11.0336 264.337 11.0977 264.666 13 266L13 262L11 262M57 262L58 263L57 262z"/>
<path style="fill:#3651b7; stroke:none;" d="M68 262L69 263L68 262z"/>
<path style="fill:#bdb3ac; stroke:none;" d="M69 262L70 263L69 262M7.33333 264.667C7.27778 264.722 7.22222 265.778 7.66667 265.333C7.72223 265.278 7.77777 264.222 7.33333 264.667z"/>
<path style="fill:#93877d; stroke:none;" d="M10 264L11 265L10 264z"/>
<path style="fill:#bdb3ac; stroke:none;" d="M52 264L53 265L52 264z"/>
<path style="fill:#3651b7; stroke:none;" d="M54 264L55 265L54 264M8 266L9 267L8 266z"/>
<path style="fill:#bdb3ac; stroke:none;" d="M48 266L49 267L48 266z"/>
<path style="fill:#3651b7; stroke:none;" d="M61 266L62 267L61 266M58 267L59 268L58 267z"/>
<path style="fill:#bdb3ac; stroke:none;" d="M60 267L61 268L60 267M42 268L43 269L42 268z"/>
<path style="fill:#3651b7; stroke:none;" d="M44 268L45 269L44 268z"/>
<path style="fill:#bdb3ac; stroke:none;" d="M8.33333 269.667C8.27778 269.722 8.22222 270.778 8.66667 270.333C8.72222 270.278 8.77778 269.222 8.33333 269.667z"/>
<path style="fill:#3651b7; stroke:none;" d="M13 269L14 270L13 269z"/>
<path style="fill:#bdb3ac; stroke:none;" d="M14 269L15 270L14 269M38 269L39 270L38 269z"/>
<path style="fill:#3651b7; stroke:none;" d="M54 269L55 270L54 269z"/>
<path style="fill:#bdb3ac; stroke:none;" d="M55 269L56 270L55 269z"/>
<path style="fill:#3651b7; stroke:none;" d="M12 270L13 271L12 270z"/>
<path style="fill:#bdb3ac; stroke:none;" d="M12 271L13 272L12 271M50.6667 271.333C50.2222 271.778 51.2778 271.722 51.3333 271.667C51.7778 271.222 50.7222 271.278 50.6667 271.333M26 272L27 273L26 272z"/>
<path style="fill:#3651b7; stroke:none;" d="M28.6667 272.333C28.2222 272.778 29.2778 272.722 29.3333 272.667C29.7778 272.222 28.7222 272.278 28.6667 272.333z"/>
<path style="fill:#bdb3ac; stroke:none;" d="M10 273L11 274L10 273M16.6667 273.333C16.2222 273.778 17.2778 273.722 17.3333 273.667C17.7778 273.222 16.7222 273.278 16.6667 273.333z"/>
<path style="fill:#3651b7; stroke:none;" d="M19 273C20.769 273.779 22.0359 273.912 24 274C22.231 273.221 20.9641 273.088 19 273z"/>
<path style="fill:#bdb3ac; stroke:none;" d="M45 273L46 274L45 273z"/>
<path style="fill:#3651b7; stroke:none;" d="M8 274L9 275L8 274z"/>
<path style="fill:#bdb3ac; stroke:none;" d="M13 274L14 275L13 274z"/>
<path style="fill:#3651b7; stroke:none;" d="M14 274L15 275L14 274M39.6667 274.333C39.2222 274.778 40.2778 274.722 40.3333 274.667C40.7778 274.222 39.7222 274.278 39.6667 274.333z"/>
<path style="fill:#bdb3ac; stroke:none;" d="M41.6667 274.333C41.2222 274.778 42.2778 274.722 42.3333 274.667C42.7778 274.222 41.7222 274.278 41.6667 274.333M7 275L8 276L7 275M9 275L10 276L9 275z"/>
<path style="fill:#3651b7; stroke:none;" d="M35.6667 275.333C35.2222 275.778 36.2778 275.722 36.3333 275.667C36.7778 275.222 35.7222 275.278 35.6667 275.333M25.3333 277.667C25.2778 277.722 25.2222 278.778 25.6667 278.333C25.7222 278.278 25.7778 277.222 25.3333 277.667z"/>
<path style="fill:#bdb3ac; stroke:none;" d="M11 279L12 280L11 279z"/>
</svg>
