<?xml version="1.0" standalone="yes"?>
<svg xmlns="http://www.w3.org/2000/svg" width="170" height="280">
<path style="fill:#7f7f7f; stroke:none;" d="M0 0L0 32C7.36381 30.6914 13.419 26.6281 20 23.3773C23.2093 21.7921 26.7424 21.2393 30 19.8017C37.0075 16.7093 42.026 13.8104 50 15.2276C60.7414 17.1367 67.5972 27.224 74.5934 34.2631C76.9182 36.6022 80.3253 38.0189 82.3665 40.5039C84.403 42.983 85.4623 45.9773 87.8997 48.196C92.6399 52.5108 99.7455 52.1252 104.24 57.213C110.201 63.9612 114.32 72.2375 118.795 79.9606C120.2 82.3863 122.419 84.4546 123.416 87.0895C124.249 89.2918 124.158 91.7442 124.919 93.9853C125.769 96.4895 127.574 98.602 128.205 101.17C131.739 115.536 133.027 130.67 136.854 145C141.328 161.752 151.87 176.526 156.891 192.996C157.905 196.323 156.297 198.836 156.647 202.09C157.078 206.102 159.088 210.059 160 214C156.341 213.894 152.598 212.283 149 212.647C140.262 213.529 134.438 218.767 126.144 212.16C123.439 210.007 122.396 206.741 120.437 204C116.611 198.647 112.807 193.323 108.927 188.001C105.935 183.897 104.177 180.3 99 179L98 183C99.1952 184.223 99.3164 184.42 100 186L89 188.8L73 189C78.3439 181.904 86.733 178.054 94 173C91.5524 166.883 80.7939 160.176 73.9861 162.753C70.5068 164.07 68.0575 167.186 65.8086 170.001C63.7631 172.561 61.2189 175.516 61.2809 179C61.3345 182.013 63.4694 184.567 65 187C56.3313 187.179 47.6683 189.316 39 190C44.8345 184.416 51.8677 179.557 56.571 172.91C58.3662 170.373 60.741 167.284 60.0378 164C58.1985 155.41 47.9245 149.689 47 141C34.6918 130.458 29.9441 112.104 26.3457 97C25.1894 92.1464 22.3445 87.0266 22.4699 82C22.7454 70.9559 32.3099 59.5659 26.1752 49.108C21.9606 41.9236 7.56999 39.022 0 37L0 280L170 280L170 0L0 0z"/>
<path style="fill:#010101; stroke:none;" d="M0 32C0.468616 38.0152 4.87243 38.7403 10 40.6319C17.1067 43.2537 24.7918 45.099 27.4923 53.0008C30.4595 61.683 22.6431 72.914 21.973 82C21.6141 86.8667 24.9222 92.2982 26.1049 97C29.2318 109.431 32.1494 121.248 39.4236 132C41.7113 135.381 43.4168 138.968 47 141C47.3145 150.193 59.2267 155.921 59.6219 165C59.7449 167.825 57.5019 170.751 55.9097 172.91C51.1264 179.399 43.7595 183.533 39 190C47.7367 189.625 56.3058 187.374 65 187C63.8085 184.253 61.1901 181.14 61.6613 178C62.0594 175.346 64.2029 173.017 65.8086 171C68.2592 167.921 71.0918 164.092 74.9961 162.822C81.4166 160.734 90.9783 167.939 94 173C90.6275 174.563 88.1465 177.061 85 179.007C79.7419 182.26 76.1276 183.293 73 189C82.606 188.594 90.686 188.541 100 186C99.5943 183.908 99.7833 183.98 98 183L99 179C104.06 181.016 105.846 184.756 108.927 189L120.437 204.999C122.354 207.673 123.398 210.818 126.144 212.811C134.301 218.733 140.556 213.798 149 213.02C152.569 212.691 156.365 213.96 160 214C159.403 209.957 157.405 206.123 157.019 202.09C156.714 198.896 158.165 196.253 157.246 192.996C154.857 184.526 149.846 176.943 146.173 169C144.422 165.214 143.903 161.177 142.546 157.285C141.074 153.066 138.453 149.287 137.128 145C132.683 130.618 132.806 114.565 128.401 100.285C123.785 85.3192 115.254 69.3517 104.961 57.213C100.524 51.9811 93.5183 52.4394 88.669 48.196C86.1404 45.9834 84.9074 42.9918 82.8303 40.4537C80.6149 37.7467 77.0666 36.0025 74.5795 33.4159C68.0157 26.5897 61.1996 17.0404 51 15.2276C32.8238 11.9972 16.7178 27.2208 0 32z"/>
<path style="fill:#ed1d25; stroke:none;" d="M34 28L33 29L34 31L36 30C35.455 28.3649 35.6351 28.545 34 28z"/>
</svg>
