<?xml version="1.0" standalone="yes"?>
<svg xmlns="http://www.w3.org/2000/svg" width="180" height="270">
<path style="fill:#8c8c8c; stroke:none;" d="M0 0L0 270L97 270C96.9903 255.364 95.373 240.626 95.0147 226C94.2967 196.692 94.6039 167.258 94 138L89 139C92.3295 133.195 94.6407 127.568 96 121C90.8638 121.916 85.005 123.874 83 129C84.4336 130.393 85.0449 131.233 86 133C83.3228 131.109 82.216 130.506 79 131L80 137C72.2917 134.328 64.0353 129.163 67 120C70.351 126.733 77.5643 135.434 81 124C76.2643 123.584 72.3528 121.785 68 120C69.954 119.488 71.2993 119.048 73 118C76.5609 122.944 84.1244 123.714 87 118C84.2341 118.185 81.6782 118.302 79 119C79.3483 116.209 80.287 113.774 80 111C83.7989 110.705 85.6159 110.025 85 106L82 109L82 104L74 100C74 102.227 72.6463 102.354 71 104C69.5537 101.717 68.6895 101.418 66 101C65.8916 97.698 64.1752 91.4323 60 95L58 91C57.3152 92.2483 57.2512 92.5484 57 94C54.3066 90.9937 51.8879 89.1689 48 88C48.7679 89.3141 48.6859 89.2321 50 90C50.4177 93.367 51.9064 95.3088 54 98C50.4347 96.0568 46.5044 95.0193 43 93.1335C37.4264 90.1342 32.8578 85.7349 27 83C28.0271 80.6017 28.678 78.5843 29 76C35.5953 75.8537 41.508 77.1616 48 78L47 70C52.3515 69.0343 56.8201 66.101 61 62.6782C63.9123 60.2934 66.1701 57.5121 70 57C68.5061 52.9803 66.2329 49.6346 64 46C67.6629 45.0281 71.5904 43.1791 75.4244 43.2006C88.7822 43.2757 101.146 47.5629 114 43C114.695 47.1435 120.992 42.7756 123.866 42.8889C125.658 42.9595 127.434 44.2429 129 45C127.492 48.597 125.973 51.4524 123 54L125 49C121.725 50.2588 118.985 52.1664 116 54L115 49L101 49C104.263 51.0496 107.231 51.7851 111 51C112.628 55.1028 115.85 56.1309 120 57C119.35 55.7003 119.853 56 118 56L123 54C123.637 58.0618 126.237 60.4267 128 64C122.54 61.7448 116.274 59.3065 111 63C107.541 59.3254 104.079 57.277 99 57L100 54C95.3697 53.0964 90.7056 53.987 86 54C87.8006 53.4382 89.1218 53.1759 91 53C88.1103 51.7871 85.1259 52.0017 82 52L84 51L76 46L76 49L72 48C73.5751 60.4628 71.0083 72.5127 71 85C72.7968 85 72.5215 84.9857 74 84C74.6051 89.3058 77.9314 92.5061 83 94L83 77C96.6657 75.1598 109.739 69.545 123 66C120.838 68.1712 118.941 69.129 116 70C119.094 71.6573 122.564 72.2908 126 73L126 71L129 72L129 68L131 71C132.459 69.6879 133.157 68.7691 134 67C138.041 67.9402 141.849 66.4933 146 67L148 60C141.775 61.0589 135.472 63.9066 130 67C132.7 63.9064 144.233 56.661 148.397 59.8125C152.193 62.6848 152.657 73.651 153 78C151.6 76.8699 150.584 75.7824 149 75C150.073 78.8103 151.686 82.9887 151.359 87C150.925 92.3217 147.583 97.4772 144.999 102C139.785 111.13 135.343 124.311 123 125.258C119.493 125.527 116.13 123.301 113 122C117.681 128.434 124.558 129.916 132 131.45C141.979 133.506 151.736 134.993 162 135L162 137C151.609 137 141.326 137.226 131 136.05C125.667 135.443 119.379 134.474 115.419 130.468C113.165 128.187 112.278 124.862 111 122C106.163 122.943 101.807 121.621 97 121C98.2213 126.923 98.6538 131.101 97 137C102.305 135.185 105.289 131.007 109 127C108.386 131.888 108.528 135.274 110 140C108.814 138.964 108.396 138.661 107 138C105.289 144.615 104.619 151.163 105.09 158C105.34 161.63 106.649 165.348 106.37 168.996C106.091 172.657 103.369 175.349 103.058 179.039C102.201 189.213 103 199.789 103 210L103 270L180 270L180 0L0 0z"/>
<path style="fill:#333333; stroke:none;" d="M64 46C65.6179 49.8524 68.0306 53.3021 70 57C61.8241 57.3628 55.3085 67.5551 47 70C47.1174 72.7301 47.4992 75.3142 48 78C41.4253 76.725 35.7146 75.5257 29 76L27 83C35.9493 88.903 43.9614 94.2571 54 98L48 88C51.3581 89.4802 53.7757 91.0652 56 94L58 91L59 95C63.8728 91.9545 66 96.3586 66 101C68.4343 101.651 69.2827 102.16 71 104C72.9716 102.662 74.0531 102.216 74 100C76.8623 101.495 78.7283 103.452 82 104L82 109C83.7295 108.119 83.8887 107.742 85 106C84.8357 109.642 83.5255 110.436 80 111L81 114C79.1969 115.54 79.168 116.597 79 119L87 118C83.0699 123.057 77.468 122.226 73 118C71.1205 119.175 70.2846 119.131 68 119C71.6323 122.639 75.9457 123.768 81 124C76.4457 134.212 71.2616 126.035 67 120C63.2861 129.298 71.8527 135.047 80 137L79 131C81.8226 131.033 83.4708 131.707 86 133C85.2235 130.868 84.8698 130.229 83 129C85.7616 124.373 90.9585 122.452 96 121C94.1967 127.352 91.4287 132.926 89 139L94 138C94.2466 167.791 93.7339 198.187 95.0394 228C95.6497 241.939 96.9615 256.047 97 270C98.4403 266.568 98 262.7 98 259L100 259L100 270L103 270L103 210C103 200.106 102.244 189.874 103.058 180.015C103.392 175.969 106.479 173.049 106.641 168.996C106.801 165.003 105.364 160.979 105.09 157C104.639 150.463 105.764 144.374 107 138C108.635 138.545 108.455 138.365 109 140C109.946 136.179 108.684 131.186 109 127C104.783 130.27 101.821 134.491 97 137C99.1561 131.241 98.6359 126.821 97 121C101.78 121.927 106.219 123.315 111 122C112.039 125.183 112.876 128.84 115.419 131.2C119.489 134.977 125.768 135.527 131 136.155C141.286 137.39 151.644 137 162 137L162 135C146.065 134.956 124.949 133.57 113 122C115.209 123.283 117.479 124.732 120.002 125.323C132.836 128.332 138.937 113.612 143.85 105C146.964 99.5405 151.129 93.4509 151.609 87C151.909 82.9644 150.402 78.7169 149 75C150.4 76.1301 151.416 77.2176 153 78C152.793 73.176 152.401 63.4262 148.977 59.6458C147.394 57.8986 144.851 58.9761 142.999 59.5957C138.263 61.1803 132.591 62.5149 130 67C135.867 64.4452 141.813 61.6587 148 60C146.988 62.3731 146.378 64.4493 146 67C141.846 66.1307 138.134 67.481 134 67L131 71L130 68C129.317 69.5061 129.174 70.3148 129 72C127.521 71.0143 127.797 71 126 71L126 73C122.664 72.0623 119.458 71.2825 116 71C118.872 69.6172 121.233 68.679 123 66C109.375 68.316 96.5849 74.196 83 77L83 94C78.4757 91.8486 75.0382 89.0278 74 84L71 85C71.0341 72.6259 74.2852 60.309 72 48L76 49L76 46C78.7281 48.3341 80.3394 49.7121 84 50L82 51C84.8897 52.2129 87.8741 51.9983 91 52C89.1995 52.5618 87.8781 52.8241 86 53C90.3291 54.8159 95.3673 53.5055 100 54C99.0143 55.4785 99 55.2032 99 57C103.914 57.5376 107.141 60.071 111 63C116.823 59.7669 122.088 62.225 128 64C126.883 60.2885 124.065 57.7621 123 54L118 55C118.65 56.2997 118.147 56 120 56C115.827 55.8817 113.179 54.5985 111 51C107.522 51.3168 104.433 50.4954 101 50C105.618 48.6244 110.222 48.8887 115 49C115.176 50.8781 115.438 52.1994 116 54C119.197 52.6561 121.983 50.71 125 49L123 54C126.603 51.9551 127.871 48.9073 129 45C128.35 44.5669 125.984 41.993 126 42C121.246 39.9627 117.894 46.9365 113 44L114 43C110.989 43.6804 108.092 45.3952 105 45.6065C90.5414 46.5943 78.3158 40.7335 64 46z"/>
<path style="fill:#8c8c8c; stroke:none;" d="M82 47C86.9519 49.0779 94.5663 48.7667 100 49C95.0538 46.0371 87.5759 46.0799 82 47M118 46C119.458 47.0811 120.248 47.4361 122 48C120.457 46.7333 119.952 46.5108 118 46z"/>
<path style="fill:#333333; stroke:none;" d="M77.6667 62.3333C77.2222 62.7778 78.2778 62.7222 78.3333 62.6667C78.7777 62.2222 77.7222 62.2778 77.6667 62.3333M143 62L144 63L143 62M126 65C127.139 66.0154 127.612 66.3087 129 67C128.02 65.2167 128.092 65.4057 126 65z"/>
<path style="fill:#8c8c8c; stroke:none;" d="M130 77L127 76L127 83C126.356 80.8941 126.094 79.2049 126 77L124 77L123 83C122.014 81.5215 122 81.7968 122 80C120.487 80.5711 119.573 80.8636 118 81C116.798 82.666 115.84 84.1387 115 86C109.417 82.2432 104.917 88.5573 99 89C99.4646 90.9818 99.7035 91.4055 101 93C98.8753 95.8037 99.0115 98.5335 99 102L96 102C96.0135 105.194 95.5971 107.271 99 108C97.8966 109.457 97.4566 109.897 96 111C97.506 111.683 98.3148 111.826 100 112C98.9209 114.657 98.576 116.18 99 119L102 118C106.527 123.927 119.577 118.684 126 118C125.014 119.479 125 119.203 125 121C129.045 114.727 132.523 104.436 133.741 97C134.328 93.4165 133.09 89.5819 134.048 86.0895C135.687 80.115 139.124 75.5073 140 69C135.704 70.4984 131.485 72.489 130 77M54 70C54 71.7968 53.9857 71.5215 53 73C51.9774 71.4661 52.1954 71.5977 51 71C49.2791 73.7372 49.7979 75.8227 50 79C53.221 78.7233 55.8569 79.4219 59 80C57.5992 77.8346 56.3574 77.0943 54 76C54.5288 73.6469 54.8108 72.2393 54 70M63.3333 72.6667C63.2778 72.7222 63.2222 73.7778 63.6667 73.3333C63.7222 73.2778 63.7778 72.2222 63.3333 72.6667M99 76C101.634 80.5125 105.218 80.8181 110 82L110 77C109.315 78.2484 109.251 78.5484 109 80L99 76M88 77C91.3382 78.6037 94.4275 78.9023 98 78C94.8367 76.6726 91.4144 77.0004 88 77M36 84C40.7921 85.1351 45.0099 86.8832 50 87C47.5567 83.4336 43.2528 83.5627 40 81C37.8683 81.7765 37.2292 82.1302 36 84M49 81L51 86C51.5661 83.4913 50.8476 82.7802 49 81M54 81C54.5821 84.9662 57.2097 86.6467 59 90L63 89L62 91C65.7502 90.539 69.5248 92.1319 72 89C68.4455 87.8462 65.6763 86.629 63 84C62.0886 85.3765 61.5962 86.4399 61 88C59.0424 85.2263 56.6351 83.1292 54 81M140 81L140 84C140.696 82.4463 140.696 82.5537 140 81M84 82C84.077 84.6451 83.9966 86.266 86 88C85.6453 85.6585 85.2247 84.0132 84 82M65 84L65 86L67 86L67 84L65 84z"/>
<path style="fill:#333333; stroke:none;" d="M117 85L117 89C117.71 87.2405 117.71 86.7595 117 85z"/>
<path style="fill:#8c8c8c; stroke:none;" d="M149 87C138.299 92.157 135.302 108.931 131 119C138.519 116.314 141.359 103.239 145.505 97C147.539 93.938 149.894 90.6979 149 87M70.6667 93.3333C70.2222 93.7778 71.2778 93.7222 71.3333 93.6667C71.7778 93.2222 70.7222 93.2778 70.6667 93.3333M91 93C92.2484 93.6848 92.5484 93.7488 94 94C92.7517 93.3152 92.4515 93.2512 91 93M136 93L137 94L136 93z"/>
<path style="fill:#333333; stroke:none;" d="M54.3333 94.6667C54.2778 94.7222 54.2222 95.7778 54.6667 95.3333C54.7222 95.2778 54.7778 94.2222 54.3333 94.6667z"/>
<path style="fill:#8c8c8c; stroke:none;" d="M75 94C77.9885 98.0336 83.3055 100.47 88 102C85.2582 97.1322 80.249 95.2192 75 94z"/>
<path style="fill:#333333; stroke:none;" d="M54 98L58 105C58.5656 102.66 58.1761 100.429 58 98L54 98M60 102C60.5382 108.893 63.011 113.382 67 119C68.5017 116.465 68.6078 114.869 68 112L64 113C63.1856 109.055 62.5779 105.146 60 102z"/>
<path style="fill:#8c8c8c; stroke:none;" d="M89 104C89.9892 107.739 90.9089 111.108 91 115C92.5739 111.241 92.377 106.571 89 104M61 107L62 108L61 107z"/>
<path style="fill:#333333; stroke:none;" d="M67.6667 109.333C67.2222 109.778 68.2778 109.722 68.3333 109.667C68.7778 109.222 67.7222 109.278 67.6667 109.333M70 110L71 111L70 110z"/>
<path style="fill:#8c8c8c; stroke:none;" d="M67.3333 114.667C67.2778 114.722 67.2222 115.778 67.6667 115.333C67.7223 115.278 67.7778 114.222 67.3333 114.667M83 117L89 117C86.6637 115.414 84.9919 114.803 83 117M92 118C94.209 117.316 94.7034 116.92 96 115C94.0515 115.936 93.4498 116.392 92 118M120 123C122.132 122.224 122.771 121.87 124 120C121.703 120.674 121.226 120.965 120 123z"/>
<path style="fill:#333333; stroke:none;" d="M109 125L109 127C110.635 126.455 110.455 126.635 111 125L109 125M110.333 129.667C110.278 129.722 110.222 130.778 110.667 130.333C110.722 130.278 110.778 129.222 110.333 129.667z"/>
<path style="fill:#8c8c8c; stroke:none;" d="M116 129L117 130L116 129M105 133L105 136C105.696 134.446 105.696 134.554 105 133z"/>
<path style="fill:#333333; stroke:none;" d="M61 154C66.8072 155.202 73.2225 151.058 73 145C76.7996 144.248 78.0511 141.637 79 138L75 143C75.2054 140.727 76.09 139.09 77 137C67.7456 139.621 69.4922 150.22 61 154M86 137L84 142L82 141C81.5206 142.498 81.5999 142.35 82 144L84 144L88 137L86 137z"/>
<path style="fill:#8c8c8c; stroke:none;" d="M104 138C102.851 140.71 102.254 143.068 102 146C100.521 145.014 100.797 145 99 145L98 149C103.553 156.339 95.9324 168.54 101 177C103.998 170.771 103.724 162.844 104 156C103.089 157.377 102.596 158.44 102 160C101.19 157.271 101.021 154.85 101 152C102.186 153.036 102.604 153.339 104 154C102.937 148.612 104.815 143.303 104 138z"/>
<path style="fill:#333333; stroke:none;" d="M79 144L75 151L74 150L75 153C73.5215 152.014 73.7968 152 72 152C70.2412 159.484 64.7968 165.006 64 173C71.0647 170.65 76.1471 154.956 77 148C79.8008 147.47 80.1775 146.754 81 144L79 144z"/>
<path style="fill:#8c8c8c; stroke:none;" d="M71 148L72 149L71 148M73 154L74 155L73 154z"/>
<path style="fill:#333333; stroke:none;" d="M64 160L65 161L64 160z"/>
<path style="fill:#8c8c8c; stroke:none;" d="M70 161L69 163C70.2627 162.029 70.3919 162.306 70 161M100 179C97.385 187.847 99 198.797 99 208C101.035 203.15 99.7338 197.194 100.09 192C100.394 187.557 101.78 183.244 100 179M99 212L99 220C100.161 217.23 100.161 214.77 99 212M98 259L98 270L100 270L100 259L98 259z"/>
</svg>
