<?xml version="1.0" standalone="yes"?>
<svg xmlns="http://www.w3.org/2000/svg" width="30" height="30">
<path style="fill:#fefefe; stroke:none;" d="M0 0L0 30L30 30L30 22L18 28L21 25C17.3972 24.1676 14.7758 26.5106 11 25C14.2661 20.3369 13 13.5118 13 8L15 8L15 25C17.2432 24.0388 20.4275 23.4975 22.3472 21.9907C27.0415 18.3064 23.8068 12.5168 21 9C23.7903 10.028 25.5555 11.667 26 8C27.1289 10.4911 28.0172 12.14 30 14L30 0L0 0z"/>
<path style="fill:#060606; stroke:none;" d="M2 26C5.07741 24.6949 7.6597 24.097 11 24C7.62523 22.5993 5.15158 23.3186 2 25C2 19.0896 -0.397239 5.63372 8.95602 6.52315C10.3262 6.65344 11.7715 7.48378 13 8C9.73981 4.67136 3.76088 3.71647 1.6034 9.05864C-0.236213 13.6137 0.650442 21.4343 2 26M15 8C19.229 6.22251 21.771 6.22251 26 8C22.7465 4.67818 17.9216 3.86485 15 8M13 8C14.4048 13.9007 14 19.9679 14 26C12.8137 24.8137 12.4162 24.4721 11 24C14.6622 27.7184 17.5696 25.0838 22 24C19.0045 23.0388 17.5033 24.1964 15 26C15 21.0699 16.9056 11.4129 13 8M26 8L26 11C26.6961 9.44631 26.6961 9.5537 26 8z"/>
<path style="fill:#afafaf; stroke:none;" d="M13 9L13 25C14.8123 20.6811 14.8123 13.3189 13 9z"/>
<path style="fill:#7f7f7f; stroke:none;" d="M21 9C24.8987 15.5206 24.3544 18.036 22 25C32.0854 21.0789 31.014 11.9829 21 9z"/>
<path style="fill:#afafaf; stroke:none;" d="M29 14L30 15L29 14M25.3333 16.6667C25.2778 16.7222 25.2222 17.7778 25.6667 17.3333C25.7222 17.2778 25.7778 16.2222 25.3333 16.6667M29 20L25 23C27.5435 23.5498 29.0786 22.6868 29 20M23 21L24 22L23 21z"/>
<path style="fill:#7f7f7f; stroke:none;" d="M17 23L18 24L17 23M12 24L13 25L12 24M16 24L17 25L16 24z"/>
<path style="fill:#afafaf; stroke:none;" d="M21 24C19.5645 25.4494 18.885 26.2221 18 28C20.0248 26.8033 21.1007 26.3484 21 24z"/>
<path style="fill:#060606; stroke:none;" d="M24 24L25 25L24 24M26 24L27 25L26 24z"/>
<path style="fill:#7f7f7f; stroke:none;" d="M13 25L14 26L13 25M15 25L16 26L15 25z"/>
<path style="fill:#060606; stroke:none;" d="M25 25L26 26L25 25z"/>
<path style="fill:#7f7f7f; stroke:none;" d="M17 28L18 29L17 28z"/>
<path style="fill:#afafaf; stroke:none;" d="M15.6667 29.3333C15.2222 29.7778 16.2778 29.7222 16.3333 29.6667C16.7778 29.2222 15.7222 29.2778 15.6667 29.3333z"/>
</svg>
