<?xml version="1.0" standalone="yes"?>
<svg xmlns="http://www.w3.org/2000/svg" width="30" height="30">
<path style="fill:#fafafa; stroke:none;" d="M0 0L0 30L30 30L30 22L21 26C18.2803 23.2751 14.6274 26.8411 11 24L14 25C14 19.3582 14.6071 13.437 13 8C16.3648 12.4414 15 19.6104 15 25C17.2817 24.0244 20.5247 23.5008 22.4861 21.9907C27.1539 18.3972 23.7193 12.4071 21 9C23.7903 10.028 25.5555 11.667 26 8L29 15C30.8763 10.5286 30 4.81664 30 0L0 0z"/>
<path style="fill:#060606; stroke:none;" d="M2 26C5.07741 24.6949 7.6597 24.097 11 24C7.62523 22.5993 5.15158 23.3186 2 25C2 19.0896 -0.397239 5.63372 8.95602 6.52315C10.3262 6.65344 11.7715 7.48378 13 8C9.73981 4.67136 3.76088 3.71647 1.6034 9.05864C-0.236213 13.6137 0.650442 21.4343 2 26M15 8C19.229 6.22251 21.771 6.22251 26 8C22.7465 4.67818 17.9216 3.86485 15 8M13 8C14.4048 13.9007 14 19.9679 14 26C12.8137 24.8137 12.4162 24.4721 11 24C14.6622 27.7184 17.5696 25.0838 22 24C19.0045 23.0388 17.5033 24.1964 15 26C15 21.0699 16.9056 11.4129 13 8M26 8L26 11C26.6961 9.44631 26.6961 9.5537 26 8z"/>
<path style="fill:#7f7f7f; stroke:none;" d="M21 9C25.1971 16.0851 23.8982 18.7404 21 26C23.3791 25.1041 26.6247 24.3814 28.3966 22.4398C33.7294 16.5962 26.0809 10.5135 21 9M17 23L18 24L17 23M12 24L13 25L12 24M16 24L17 25L16 24z"/>
<path style="fill:#060606; stroke:none;" d="M24 24L25 25L24 24M26 24L27 25L26 24z"/>
<path style="fill:#7f7f7f; stroke:none;" d="M13 25L14 26L13 25M15 25L16 26L15 25z"/>
<path style="fill:#060606; stroke:none;" d="M25 25L26 26L25 25z"/>
<path style="fill:#7f7f7f; stroke:none;" d="M17 29C18.4566 27.8966 18.8966 27.4566 20 26C18.0775 26.9015 18.0012 27.0762 17 29z"/>
</svg>
