<?xml version="1.0" standalone="yes"?>
<svg xmlns="http://www.w3.org/2000/svg" width="73" height="73">
<path style="fill:#fefefe; stroke:none;" d="M0 0L0 73L10 73C10 67.3941 8.50274 59.6162 12 55C10.3074 60.7263 11 67.0572 11 73L60 73C60 67.0572 60.6926 60.7263 59 55C62.4973 59.6162 61 67.3941 61 73L73 73L73 0L0 0z"/>
<path style="fill:#191919; stroke:none;" d="M33 44L12 54C20.0296 55.4003 27.0984 46.1069 35 45.6034C42.6793 45.1141 51.6518 52.8839 59 55C53.1676 50.1674 44.2701 46.0944 37 44C42.517 41.8005 47.4253 39.796 50.0301 33.9992C55.1359 22.6367 45.2014 9.99477 33 11.1998C21.0828 12.3769 13.4379 25.4871 20.0054 35.9846C22.9674 40.719 27.7938 42.7628 33 44z"/>
<path style="fill:#fefefe; stroke:none;" d="M33 12.5293C12.7943 14.3989 15.9217 44.746 36 42.6597C56.1219 40.5689 52.9513 10.6833 33 12.5293z"/>
<path style="fill:#191919; stroke:none;" d="M10 55L10 73C12.282 67.5617 10.6131 60.8253 12 55L10 55M59 55C60.4048 60.9007 60 66.9679 60 73C61.7614 68.8023 62.6093 58.1539 59 55z"/>
</svg>
