<?xml version="1.0" standalone="yes"?>
<svg xmlns="http://www.w3.org/2000/svg" width="170" height="280">
<path style="fill:#fbfbfb; stroke:none;" d="M0 0L0 280L170 280L170 0L0 0z"/>
<path style="fill:#202020; stroke:none;" d="M109 106C111.332 106.985 113.457 106.981 116 107C114.542 97.8376 116 87.348 116 78L118 78C118 87.6148 117.24 97.5181 119 107L123 107L123 89C123 87.3071 122.259 83.4815 123 82L125 81C125.275 79.3524 124.265 76.4704 125 75L127 74C128.225 72.1628 127.367 71.4673 128 74C129.552 70.3013 129 65.9828 129 62L129 42C127.805 42.5977 128.023 42.4661 127 44C125.411 40.782 123.473 38.9576 120 38C120.484 35.3908 121.61 31.8696 120.393 29.3179C119.275 26.9747 115.663 26.5358 114.029 28.6042C112.012 31.156 114.013 34.8967 112.666 37.7006C111.745 39.6185 109.578 40.2993 108.274 41.8742C106.692 43.7851 106.008 46.6217 105.515 49.0008C103.985 56.378 104.767 65.6645 106.704 72.9105C107.635 76.3947 109.876 79.5918 110.49 83.1551C111.023 86.2529 109.031 88.8761 109.183 91.9498C109.444 97.2267 112.693 101.126 109 106M9 43C8.7552 48.687 6.33725 54.3495 6.61265 60C6.83035 64.4665 7.29968 70.5983 8.68364 74.8302C9.79911 78.2412 11.9807 81.4899 12.4159 85.1304C12.7403 87.8442 11.0478 90.2269 11.1829 92.9498C11.4337 98.0044 13 102.739 13 108L18 108C16.9501 98.6005 18 88.4976 18 79L20 79L20 108L25 108L25 90C25 88.307 24.2592 84.4815 25 83L27 82C27.2746 80.3524 26.2648 77.4704 27 76L29 75C30.2248 73.1628 29.3668 72.4673 30 75C34.4505 64.3979 31 53.9761 31 43C30.3152 44.2483 30.2512 44.5484 30 46C27.8434 42.5652 26.029 40.8175 22 40C22.608 37.2724 24.4316 34.0548 23.6636 31.2137C22.8157 28.0772 18.0729 27.2115 16.0285 29.7431C14.3971 31.7634 15.5089 34.6452 15.2724 36.9599C14.8927 40.6759 12.2581 42.1557 9 43M47 104L53 104L52 81C58.3511 84.8928 60.9754 99.8141 61 107L66 107C65.9915 94.1865 61.8513 81.7878 60.946 69.0394C60.687 65.3917 59.3396 62.7065 60 59C61.5944 60.2965 62.0183 60.5354 64 61C63.8117 56.6271 63.2579 51.9735 60.6597 48.2863C59.0276 45.97 55.9724 44.4817 54.9869 41.7384C54.2527 39.6948 55.5042 37.9301 55.6127 35.9198C55.7367 33.6203 54.4949 31.2213 54 29C53.1665 29.0587 51.8908 28.9884 51.0285 29.2785C43.7378 31.7324 50.2443 38.0738 47.6289 42.4823C45.7191 45.7011 41.6605 46.3995 40.4745 50.304C38.5454 56.6552 40.6612 63.7475 41.6752 70C42.1451 72.898 41.653 76.0287 42.7022 78.8156C43.7082 81.4881 46.0922 83.2199 46.7222 86.0934C47.9448 91.6689 47 98.3029 47 104M141 107L150 107C150 102.372 150.324 97.6098 149.896 93C149.209 85.6171 146.381 77.9562 155 74C154.603 64.7434 154.268 56.2739 155 47C149.248 44.8853 150.127 35.7069 143.939 35.2068C136.37 34.595 138.717 46.3232 137.545 50.8302C135.795 57.5598 134.977 63.7627 136.259 70.8302C137.909 79.9243 142.617 88.6388 142.927 98.0108C143.033 101.19 141.71 103.979 141 107M81 43C80.0143 41.5215 80 41.7968 80 40C78.8599 42.734 78.7068 44.9974 81 47L81 49C72.3584 53.3606 76.0716 67.0284 76.8302 75C77.1135 77.977 76.2995 81.8385 77.6019 84.6057C78.644 86.8199 80.876 87.348 83 88C81.1327 94.3769 83.8653 100.51 84 107L91 107C88.9512 95.7913 94.8384 87.3441 96.7407 76.8302C97.9675 70.0503 97.0134 61.7651 95.7801 55.0394C95.3163 52.5104 93.7798 50.4142 93.2739 47.9105C92.6411 44.7785 93.8885 40.5499 91.6821 37.8935C87.159 32.448 81.3526 37.9901 81 43z"/>
<path style="fill:#fbfbfb; stroke:none;" d="M79 61L79 65L81 65L81 61L79 61M92.3333 61.6667C92.2778 61.7222 92.2222 62.7778 92.6667 62.3333C92.7223 62.2777 92.7778 61.2222 92.3333 61.6667M108.333 65.6667C108.278 65.7222 108.222 66.7778 108.667 66.3333C108.722 66.2777 108.778 65.2223 108.333 65.6667M10 67L11 68L10 67M44 68L44 73C44.8299 70.9695 44.8299 70.0305 44 68M86.6667 90.3333C86.2222 90.7778 87.2778 90.7222 87.3333 90.6667C87.7778 90.2222 86.7222 90.2778 86.6667 90.3333M86 96L86 104L88 104L88 96L86 96z"/>
<path style="fill:#202020; stroke:none;" d="M17 199L24 199C24 188.377 22.516 177.404 25 167C26.7729 172.985 26.9952 179.766 27 186C27.0022 188.788 26.3311 193.036 28.1775 195.397C29.5556 197.158 32.0178 196.934 34 197C32.0571 192.147 33.736 188.961 33.9529 184C34.1125 180.352 32.7883 176.6 33.4329 173C33.9438 170.147 35.7555 167.775 36.5015 165C37.5169 161.223 37.0077 156.876 37 153C36.9913 148.666 36.5534 139.096 33.2577 135.924C31.4367 134.171 28.3462 133.631 26 133C27.3647 129.901 30.6172 126.886 29.6636 123.198C28.4791 118.618 21.1904 116.987 18.3179 120.805C15.3186 124.792 19.5082 127.965 18.8472 131.896C18.4796 134.082 16.2843 134.859 15.1597 136.545C13.551 138.956 12.9955 143.165 12.5532 146C11.4704 152.942 15.5025 158.626 16.7369 165.09C18.044 171.933 17.0093 177.291 17.0093 184C17.0093 189.726 18.3406 193.275 17 199M85 128L85 130C82.0705 131.427 77.9712 133.643 76.0054 136.299C69.7467 144.757 76.7897 157.057 77 166L80 166C80.0296 176.709 82.4677 188.513 80 199L86 199L87 171C90.8269 176.129 89.4088 180.936 90.1289 186.91C90.6344 191.105 91.9851 194.659 92 199L97 199C95.3326 191.996 93.632 181.142 94.5679 174C95.262 168.703 99.084 163.436 98.8171 158.05C98.6959 155.604 97.4145 153.394 97.1289 150.961C96.595 146.414 97.7351 141.499 95.9715 137.13C94.8775 134.419 92.1062 133.214 90.8573 130.66C89.1123 127.093 90 121.87 90 118C84.7707 118.368 79.9714 123.606 85 128M135 196C143.447 194.59 140 176.755 140 170L142 170L142 196C143.429 196 146.205 196.059 147 195C147.873 193.836 147 188.538 147 187C147 183.613 146.268 179.294 147 176C147.198 175.111 148.708 173.877 149 173C149.568 171.296 148.204 168.593 149 167L151 166C152.225 164.163 151.367 163.467 152 166C156.45 155.398 153 144.976 153 134C152.315 135.248 152.251 135.548 152 137C149.843 133.565 148.029 131.817 144 131C144.85 127.188 145.956 123.977 146 120C144.696 119.909 143.285 119.685 141.975 119.684C134.475 119.679 139.156 126.488 136.312 130.61C134.792 132.813 132.168 133.638 131.032 136.213C126.972 145.414 128.07 155.51 130.414 164.91C131.375 168.762 133.498 172.248 134.161 176.246C134.607 178.93 133.049 181.271 133.183 183.95C133.388 188.038 134.985 191.749 135 196M112 135C103.527 136.157 103.024 143.714 103.001 151C102.974 159.219 106.346 166.152 107.741 174.09C109.131 182 108 190.974 108 199L115 199L113.519 182L115 174L117 174L117 199L122 198C122 190.474 121.251 182.514 122.129 175.039C122.767 169.607 125.217 164.339 125.871 158.91C126.73 151.785 126 144.176 126 137C122.919 136.313 120.183 135.212 117 135C117.303 132.706 117.578 131.788 119 130L119 128C117.733 126.457 117.511 125.952 117 124C109.818 124.558 110.527 129.249 112 135M54 139L48 139C48.1878 144.259 46.1992 150.234 47 156C47.2572 157.852 48.3902 159.228 48.8333 161C49.4758 163.57 48.7098 166.389 49 169C49.5773 174.195 51 178.515 51 184C51 188.754 55.1717 194.601 51 198C53.0521 198.874 54.7472 198.953 57 199L57 171C59.1757 176.952 58 184.654 58 191C58 194.53 57.0082 198.145 61 199C59.7695 193.76 61.7897 190.117 61.9815 184.985C62.5629 169.43 65 154.624 65 139L59 140L59 136L62 136C61.9318 133.098 61.9754 129.804 59.9907 127.438C57.125 124.022 52.8911 126.696 51.9012 130.34C51.1859 132.972 53.4917 136.378 54 139z"/>
<path style="fill:#fbfbfb; stroke:none;" d="M77 148L77 152L79 152L79 148L77 148M132 158L133 159L132 158M96 159L97 160L96 159M55 176L55 192C56.8123 187.681 56.8123 180.319 55 176z"/>
</svg>
