<?xml version="1.0" standalone="yes"?>
<svg xmlns="http://www.w3.org/2000/svg" width="73" height="73">
<path style="fill:#fbfbfb; stroke:none;" d="M0 0L0 73L73 73L73 0L0 0z"/>
<path style="fill:#b8b8b8; stroke:none;" d="M31 5L32 6L31 5M37 5C35.5502 6.60761 34.9486 7.06429 33 8C35.3555 9.21521 36.4571 8.85151 39 8C39.8993 10.1236 39.8764 10.1007 42 11L42 7C40.053 6.54648 38.731 6.00597 37 5z"/>
<path style="fill:#d3d3d3; stroke:none;" d="M22 20C19.6699 19.9524 19.9939 19.7966 19 22L23 22C23.8781 19.9825 24.6515 18.7677 26 17C24.681 10.8888 31.822 9.55507 36 7C27.3506 3.74905 21.0746 11.8362 22 20z"/>
<path style="fill:#555555; stroke:none;" d="M36 6L37 7L36 6M35 7L36 8L35 7z"/>
<path style="fill:#d3d3d3; stroke:none;" d="M42 8L43 13L48 12L48 10C46.3133 8.79948 46.2368 8.96935 46 7L42 8z"/>
<path style="fill:#424242; stroke:none;" d="M37 8L38 9L37 8z"/>
<path style="fill:#949494; stroke:none;" d="M38 8C37.4254 10.3962 37.5249 10.487 40 11C39.3087 9.61156 39.0154 9.13936 38 8z"/>
<path style="fill:#fbfbfb; stroke:none;" d="M41 8L41 10L43 10C42.4549 8.36484 42.6352 8.54505 41 8z"/>
<path style="fill:#555555; stroke:none;" d="M30 13C34.3433 12.4372 37.1371 14.2101 41 16L43 11L38 12L37 9C33.4791 9.33263 31.2471 9.42754 30 13z"/>
<path style="fill:#b8b8b8; stroke:none;" d="M27 10L24 16L29 14C28.9379 12.2613 29.4777 11.625 30 10L27 10z"/>
<path style="fill:#7a7a7a; stroke:none;" d="M38.6667 11.3333C38.2222 11.7778 39.2778 11.7222 39.3333 11.6667C39.7778 11.2222 38.7222 11.2778 38.6667 11.3333M28.6667 12.3333C28.2222 12.7778 29.2778 12.7222 29.3333 12.6667C29.7778 12.2222 28.7222 12.2778 28.6667 12.3333M31 12C32.506 12.683 33.3148 12.8259 35 13C33.494 12.317 32.6852 12.1741 31 12z"/>
<path style="fill:#1b1b1b; stroke:none;" d="M42 12L43 13L42 12z"/>
<path style="fill:#949494; stroke:none;" d="M36 13L37 14L36 13M42 13C43.6481 13.9241 45.1749 14.4494 47 15C46.5983 16.9435 46.5983 17.0565 47 19L49 14C46.6228 13.428 44.442 13.1095 42 13z"/>
<path style="fill:#b8b8b8; stroke:none;" d="M37 14L38 15L37 14z"/>
<path style="fill:#fbfbfb; stroke:none;" d="M42 14L43 15L42 14z"/>
<path style="fill:#7a7a7a; stroke:none;" d="M43 14C44.314 15.6179 44.8772 15.6933 47 16C45.457 14.7333 44.9522 14.5108 43 14z"/>
<path style="fill:#d3d3d3; stroke:none;" d="M50 14C49.0363 18.1225 51.4094 20.9406 52 25C53.7266 22.106 53.7366 19.2994 54 16L50 14z"/>
<path style="fill:#949494; stroke:none;" d="M39 15L40 16L39 15z"/>
<path style="fill:#b8b8b8; stroke:none;" d="M40 16C41.4975 16.4794 41.3502 16.4 43 16C44.2259 18.0347 44.7026 18.3265 47 19C45.0226 16.0992 43.4565 15.5125 40 16z"/>
<path style="fill:#555555; stroke:none;" d="M48 15C47.7761 16.6839 47.7817 17.3135 48 19C45.5656 18.3486 44.7173 17.8398 43 16C41.7576 19.3107 43.006 21.2276 45 24L39 25C41.3354 26.2358 43.1615 27.0716 45 29C40.1044 29 43.8523 36.3466 45 31C46.9691 37.9011 42.0882 49.1938 37 54C38.2484 54.6848 38.5484 54.7488 40 55C39.5194 57.2007 39.5194 57.7993 40 60C42.1144 59.9247 43.0884 60.1009 45 61C48.2486 56.6934 51.3298 51.6741 51.2253 46.0147C51.1612 42.5422 49.6999 39.5925 50 36L48 37C46.9704 31.852 46.98 26.0334 50 21L51 22C50.3824 19.4141 49.4209 17.2486 48 15z"/>
<path style="fill:#7a7a7a; stroke:none;" d="M41 17L41 20C41.6961 18.4463 41.6961 18.5537 41 17z"/>
<path style="fill:#d3d3d3; stroke:none;" d="M40 18L39 23C40.1326 21.1013 40.4734 20.1429 40 18z"/>
<path style="fill:#fbfbfb; stroke:none;" d="M40 20L40 23C40.6961 21.4463 40.6961 21.5537 40 20z"/>
<path style="fill:#b8b8b8; stroke:none;" d="M41 20L40 25C41.475 23.0648 41.791 22.3073 41 20z"/>
<path style="fill:#949494; stroke:none;" d="M51.3333 20.6667C51.2778 20.7222 51.2222 21.7778 51.6667 21.3333C51.7222 21.2778 51.7778 20.2222 51.3333 20.6667z"/>
<path style="fill:#555555; stroke:none;" d="M21 21L22 22L21 21z"/>
<path style="fill:#7a7a7a; stroke:none;" d="M42 21C42.4825 23.364 42.636 23.5176 45 24C43.8966 22.5434 43.4566 22.1034 42 21M49 21C49.6735 23.2974 49.9653 23.7741 52 25C51.3161 22.791 50.9201 22.2966 49 21z"/>
<path style="fill:#b8b8b8; stroke:none;" d="M19.6667 22.3333C19.2222 22.7778 20.2778 22.7222 20.3333 22.6667C20.7778 22.2222 19.7222 22.2778 19.6667 22.3333z"/>
<path style="fill:#424242; stroke:none;" d="M21 22L20 27C21.1326 25.1013 21.4734 24.1429 21 22z"/>
<path style="fill:#7a7a7a; stroke:none;" d="M25 22L26 23L25 22z"/>
<path style="fill:#555555; stroke:none;" d="M26.6667 22.3333C26.2222 22.7778 27.2778 22.7222 27.3333 22.6667C27.7778 22.2222 26.7222 22.2778 26.6667 22.3333z"/>
<path style="fill:#949494; stroke:none;" d="M28.3333 22.6667C28.2778 22.7222 28.2222 23.7778 28.6667 23.3333C28.7222 23.2778 28.7778 22.2222 28.3333 22.6667z"/>
<path style="fill:#b8b8b8; stroke:none;" d="M29 22L30 23L29 22z"/>
<path style="fill:#d3d3d3; stroke:none;" d="M1.33333 23.6667C1.27778 23.7222 1.22223 24.7778 1.66667 24.3333C1.72222 24.2778 1.77779 23.2222 1.33333 23.6667z"/>
<path style="fill:#949494; stroke:none;" d="M17 26L21 24C18.6918 23.4424 18.2436 24.0036 17 26z"/>
<path style="fill:#b8b8b8; stroke:none;" d="M23 25L26 24C24.2218 23.0446 23.9786 23.2337 23 25z"/>
<path style="fill:#1b1b1b; stroke:none;" d="M29.6667 23.3333C29.2222 23.7778 30.2778 23.7222 30.3333 23.6667C30.7778 23.2222 29.7222 23.2778 29.6667 23.3333z"/>
<path style="fill:#949494; stroke:none;" d="M31 23L30 25L32 25C32 23.1468 32.2997 23.6498 31 23z"/>
<path style="fill:#555555; stroke:none;" d="M18 24C17.8181 28.3026 16.1724 33.073 20 36C20.0337 31.5808 21.0582 27.4908 18 24z"/>
<path style="fill:#b8b8b8; stroke:none;" d="M19 24L20 25L19 24z"/>
<path style="fill:#949494; stroke:none;" d="M21 24L22 25L21 24z"/>
<path style="fill:#7a7a7a; stroke:none;" d="M41 24L42 25L41 24z"/>
<path style="fill:#b8b8b8; stroke:none;" d="M45 24L46 25L45 24z"/>
<path style="fill:#949494; stroke:none;" d="M49 24L49 27C49.6961 25.4463 49.6961 25.5537 49 24z"/>
<path style="fill:#b8b8b8; stroke:none;" d="M38 25L39 26L38 25z"/>
<path style="fill:#7a7a7a; stroke:none;" d="M48.3333 25.6667C48.2778 25.7222 48.2222 26.7778 48.6667 26.3333C48.7222 26.2778 48.7778 25.2222 48.3333 25.6667z"/>
<path style="fill:#424242; stroke:none;" d="M50 25C49.428 27.3772 49.1095 29.558 49 32C50.2397 30.1897 50.1837 30.2231 50 28C51.7833 27.0198 51.5943 27.0924 52 25L50 25z"/>
<path style="fill:#949494; stroke:none;" d="M52 25L52 28C52.6961 26.4463 52.6961 26.5537 52 25z"/>
<path style="fill:#424242; stroke:none;" d="M17 26L17 30C17.7102 28.2405 17.7102 27.7595 17 26z"/>
<path style="fill:#949494; stroke:none;" d="M36 28L38 31L40 27C38.0522 26.788 37.8735 27.0262 36 28z"/>
<path style="fill:#d3d3d3; stroke:none;" d="M38 29L44 28C41.4043 26.2019 39.8519 26.4032 38 29z"/>
<path style="fill:#949494; stroke:none;" d="M43 26L44 27L43 26z"/>
<path style="fill:#b8b8b8; stroke:none;" d="M25 27L25 29L27 29C26.4549 27.3648 26.6352 27.5451 25 27z"/>
<path style="fill:#7a7a7a; stroke:none;" d="M26 27L27 28L26 27z"/>
<path style="fill:#424242; stroke:none;" d="M27.3333 27.6667C27.2778 27.7222 27.2222 28.7778 27.6667 28.3333C27.7222 28.2778 27.7778 27.2222 27.3333 27.6667z"/>
<path style="fill:#7a7a7a; stroke:none;" d="M28 27L28 29L30 29C29.4549 27.3648 29.6352 27.5451 28 27M44 27L45 28L44 27z"/>
<path style="fill:#d3d3d3; stroke:none;" d="M48 27L47 31C48.1456 29.3595 48.393 28.924 48 27z"/>
<path style="fill:#b8b8b8; stroke:none;" d="M16 28L16 33C16.8299 30.9695 16.8299 30.0305 16 28z"/>
<path style="fill:#949494; stroke:none;" d="M20 28L21 29L20 28M24 28L25 29L24 28z"/>
<path style="fill:#fbfbfb; stroke:none;" d="M39 28C40.2483 28.6848 40.5484 28.7488 42 29C40.7516 28.3152 40.4516 28.2512 39 28z"/>
<path style="fill:#949494; stroke:none;" d="M42.3333 28.6667C42.2778 28.7222 42.2222 29.7778 42.6667 29.3333C42.7222 29.2778 42.7778 28.2222 42.3333 28.6667z"/>
<path style="fill:#b8b8b8; stroke:none;" d="M44 28L45 29L44 28z"/>
<path style="fill:#7a7a7a; stroke:none;" d="M50 28L50 32C49.0143 30.5215 49 30.7968 49 29C47.9377 30.6932 47.4804 32.0404 47 34C48.7387 33.9379 49.3751 34.4777 51 35C52.3295 31.9259 52.8556 30.087 50 28z"/>
<path style="fill:#555555; stroke:none;" d="M52.3333 28.6667C52.2778 28.7222 52.2222 29.7778 52.6667 29.3333C52.7222 29.2778 52.7778 28.2222 52.3333 28.6667z"/>
<path style="fill:#d3d3d3; stroke:none;" d="M1.33333 29.6667C1.27777 29.7222 1.22222 30.7778 1.66667 30.3333C1.72222 30.2778 1.77778 29.2222 1.33333 29.6667z"/>
<path style="fill:#424242; stroke:none;" d="M36 29L37 30L36 29z"/>
<path style="fill:#d3d3d3; stroke:none;" d="M37 29C36.3001 32.2161 36.4266 34.7681 37 38C38.0652 35.1235 37.883 31.9332 37 29z"/>
<path style="fill:#424242; stroke:none;" d="M39 29C39.5451 30.6352 39.3648 30.4549 41 31L41 29L39 29z"/>
<path style="fill:#7a7a7a; stroke:none;" d="M41 29L41 32C41.6961 30.4463 41.6961 30.5537 41 29z"/>
<path style="fill:#949494; stroke:none;" d="M36 30L37 31L36 30z"/>
<path style="fill:#d3d3d3; stroke:none;" d="M39 30L40 31L39 30M53 30C52.4385 32.8631 52.5239 35.1234 53 38C54.1614 35.2301 54.1614 32.7699 53 30z"/>
<path style="fill:#424242; stroke:none;" d="M45 31L45 39C46.1614 36.2301 46.1614 33.7699 45 31z"/>
<path style="fill:#b8b8b8; stroke:none;" d="M17 33L18 34L17 33z"/>
<path style="fill:#949494; stroke:none;" d="M42 33L43 34L42 33z"/>
<path style="fill:#424242; stroke:none;" d="M48.3333 33.6667C48.2778 33.7222 48.2222 34.7778 48.6667 34.3333C48.7222 34.2778 48.7778 33.2222 48.3333 33.6667z"/>
<path style="fill:#d3d3d3; stroke:none;" d="M16.6667 34.3333C16.2222 34.7778 17.2778 34.7222 17.3333 34.6667C17.7778 34.2222 16.7222 34.2778 16.6667 34.3333z"/>
<path style="fill:#949494; stroke:none;" d="M44 34L44 39C44.8299 36.9695 44.8299 36.0305 44 34z"/>
<path style="fill:#424242; stroke:none;" d="M51.3333 34.6667C51.2778 34.7222 51.2222 35.7778 51.6667 35.3333C51.7222 35.2778 51.7778 34.2222 51.3333 34.6667z"/>
<path style="fill:#b8b8b8; stroke:none;" d="M16 35L16 45C19.133 43.1202 17.148 40.0867 19 37L20 38C18.7708 36.1302 18.1317 35.7765 16 35z"/>
<path style="fill:#949494; stroke:none;" d="M48 35L48 37C49.6351 36.455 49.4549 36.6352 50 35L48 35z"/>
<path style="fill:#b8b8b8; stroke:none;" d="M50 35C50.5257 37.5431 50.8778 38.535 53 40L52 45C55.6602 41.7969 53.1234 37.6016 50 35z"/>
<path style="fill:#949494; stroke:none;" d="M52.3333 35.6667C52.2778 35.7222 52.2222 36.7778 52.6667 36.3333C52.7222 36.2778 52.7778 35.2222 52.3333 35.6667M36 36L35 39C36.7662 38.0214 36.9554 37.7782 36 36M18 37L18 43C19.2022 40.5957 19.3363 39.3141 18 37z"/>
<path style="fill:#7a7a7a; stroke:none;" d="M31.6667 37.3333C31.2222 37.7778 32.2778 37.7222 32.3333 37.6667C32.7778 37.2222 31.7222 37.2778 31.6667 37.3333z"/>
<path style="fill:#d3d3d3; stroke:none;" d="M49 37L50 38L49 37z"/>
<path style="fill:#fbfbfb; stroke:none;" d="M50 38L51 39L50 38z"/>
<path style="fill:#555555; stroke:none;" d="M19 39C17.234 46.1333 14.748 52.4675 24 55C22.994 49.8882 21.1161 43.7121 19 39z"/>
<path style="fill:#424242; stroke:none;" d="M35 39L36 40L35 39z"/>
<path style="fill:#555555; stroke:none;" d="M36 39L37 40L36 39z"/>
<path style="fill:#949494; stroke:none;" d="M50 39C49.9232 41.3537 50.2085 42.7678 51 45C51.799 42.4838 51.4903 41.1556 50 39z"/>
<path style="fill:#d3d3d3; stroke:none;" d="M35 40C32.8397 41.6695 30.6053 42.1466 28 43C31.5815 44.0978 34.9757 43.1583 37 40L35 40z"/>
<path style="fill:#949494; stroke:none;" d="M43.3333 40.6667C43.2778 40.7222 43.2222 41.7778 43.6667 41.3333C43.7222 41.2778 43.7778 40.2222 43.3333 40.6667z"/>
<path style="fill:#424242; stroke:none;" d="M52 40C51.0143 41.4785 51 41.2032 51 43C52.2892 41.5574 52.4009 41.7663 52 40z"/>
<path style="fill:#949494; stroke:none;" d="M27 42L28 43L27 42z"/>
<path style="fill:#b8b8b8; stroke:none;" d="M31.6667 43.3333C31.2222 43.7778 32.2778 43.7222 32.3333 43.6667C32.7778 43.2222 31.7222 43.2778 31.6667 43.3333z"/>
<path style="fill:#949494; stroke:none;" d="M33 43C34.2484 43.6848 34.5484 43.7488 36 44C34.7516 43.3152 34.4516 43.2512 33 43z"/>
<path style="fill:#555555; stroke:none;" d="M36 43L37 44L36 43z"/>
<path style="fill:#b8b8b8; stroke:none;" d="M1 44L1 47C1.6961 45.4463 1.6961 45.5537 1 44M36 44L37 45L36 44z"/>
<path style="fill:#1b1b1b; stroke:none;" d="M37 44L38 45L37 44z"/>
<path style="fill:#b8b8b8; stroke:none;" d="M38 44L39 45L38 44z"/>
<path style="fill:#7a7a7a; stroke:none;" d="M42 44L43 45L42 44M52 45C51.1324 47.3546 50.4264 49.5309 50 52C53.6016 51.2282 53.6591 47.8795 52 45z"/>
<path style="fill:#d3d3d3; stroke:none;" d="M53.3333 45.6667C53.2778 45.7222 53.2222 46.7778 53.6667 46.3333C53.7222 46.2778 53.7778 45.2222 53.3333 45.6667z"/>
<path style="fill:#b8b8b8; stroke:none;" d="M41.3333 46.6667C41.2778 46.7222 41.2222 47.7778 41.6667 47.3333C41.7222 47.2778 41.7778 46.2222 41.3333 46.6667z"/>
<path style="fill:#d3d3d3; stroke:none;" d="M1 47L1 52C1.82989 49.9695 1.82989 49.0305 1 47z"/>
<path style="fill:#949494; stroke:none;" d="M21 47L22 48L21 47M53 47L53 51C53.7102 49.2405 53.7102 48.7595 53 47z"/>
<path style="fill:#b8b8b8; stroke:none;" d="M16 48C16.0642 50.9934 15.9461 52.3456 19 53L16 48z"/>
<path style="fill:#1b1b1b; stroke:none;" d="M21 48L22 49L21 48z"/>
<path style="fill:#b8b8b8; stroke:none;" d="M40 48C39.077 49.9084 39.03 49.9388 39 52C40.1456 50.3595 40.393 49.924 40 48z"/>
<path style="fill:#1b1b1b; stroke:none;" d="M22 49L23 50L22 49z"/>
<path style="fill:#424242; stroke:none;" d="M23.3333 50.6667C23.2778 50.7222 23.2222 51.7778 23.6667 51.3333C23.7222 51.2778 23.7778 50.2222 23.3333 50.6667z"/>
<path style="fill:#7a7a7a; stroke:none;" d="M40 50L41 51L40 50M24 51L23 54C24.7662 53.0214 24.9555 52.7782 24 51z"/>
<path style="fill:#d3d3d3; stroke:none;" d="M36 53L37 54C38.1952 52.7772 38.3164 52.58 39 51C37.42 51.6836 37.2228 51.8048 36 53z"/>
<path style="fill:#b8b8b8; stroke:none;" d="M53 51C50.8066 52.5244 50.0016 53.525 49 56C51.1236 56.8993 51.1007 56.8764 52 59C53.8253 56.328 54.2318 54.0226 53 51z"/>
<path style="fill:#d3d3d3; stroke:none;" d="M25 52C24.1857 54.8131 23.3181 57.3863 22 60C20.8965 56.0195 20.2344 53.9234 16 53C16.1371 55.9156 16.0174 57.6305 19 58L20 62C24.6405 59.8322 26.6549 57.1293 27 52L25 52z"/>
<path style="fill:#1b1b1b; stroke:none;" d="M39 52L40 53L39 52z"/>
<path style="fill:#949494; stroke:none;" d="M21 54C21.3067 56.1228 21.3821 56.686 23 58C22.436 56.248 22.0811 55.458 21 54z"/>
<path style="fill:#d3d3d3; stroke:none;" d="M34 54C34.6624 57.1504 36.3376 57.1504 37 54L34 54z"/>
<path style="fill:#949494; stroke:none;" d="M49 54L50 55L49 54z"/>
<path style="fill:#b8b8b8; stroke:none;" d="M22.6667 55.3333C22.2222 55.7778 23.2778 55.7222 23.3333 55.6667C23.7778 55.2222 22.7222 55.2778 22.6667 55.3333z"/>
<path style="fill:#7a7a7a; stroke:none;" d="M37.3333 55.6667C37.2778 55.7222 37.2222 56.7778 37.6667 56.3333C37.7222 56.2778 37.7778 55.2222 37.3333 55.6667z"/>
<path style="fill:#424242; stroke:none;" d="M38 55L38 62C39.3533 59.7614 39.5748 57.5972 40 55L38 55z"/>
<path style="fill:#fbfbfb; stroke:none;" d="M23.3333 56.6667C23.2778 56.7222 23.2222 57.7778 23.6667 57.3333C23.7222 57.2778 23.7778 56.2222 23.3333 56.6667z"/>
<path style="fill:#d3d3d3; stroke:none;" d="M49 56C48.4382 57.8006 48.1759 59.1218 48 61C50.3365 61.206 51.8888 61.9373 54 63C53.3831 60.2958 52.456 58.3705 51 56L49 56z"/>
<path style="fill:#555555; stroke:none;" d="M51 56L52 57L51 56z"/>
<path style="fill:#b8b8b8; stroke:none;" d="M35 57L37 60C38.1178 57.8603 37.2508 57.4732 35 57z"/>
<path style="fill:#949494; stroke:none;" d="M47 57L45 61L48 61C47.8259 59.3148 47.683 58.506 47 57z"/>
<path style="fill:#b8b8b8; stroke:none;" d="M21 58C21.5451 59.6352 21.3648 59.4549 23 60L23 58L21 58z"/>
<path style="fill:#424242; stroke:none;" d="M41 59C42.1394 60.0154 42.6116 60.3087 44 61C43.0198 59.2167 43.0924 59.4057 41 59z"/>
<path style="fill:#b8b8b8; stroke:none;" d="M21 61C22.8092 61.5743 23.0688 61.4653 25 61C23.3407 60.5935 22.7582 60.6914 21 61z"/>
<path style="fill:#949494; stroke:none;" d="M37 60L38 61L37 60M39 60L38 63C39.7662 62.0214 39.9554 61.7782 39 60z"/>
<path style="fill:#b8b8b8; stroke:none;" d="M41 60L42 61L41 60z"/>
<path style="fill:#7a7a7a; stroke:none;" d="M42 60L43 61L42 60z"/>
<path style="fill:#424242; stroke:none;" d="M46 60L47 61L46 60z"/>
<path style="fill:#b8b8b8; stroke:none;" d="M44 61C45.8962 62.5926 47.4802 64.0455 49 66L53 64L53 62C49.8552 60.7337 47.3655 60.8122 44 61z"/>
<path style="fill:#d3d3d3; stroke:none;" d="M24 61L22 62C23.482 62.7912 24.7964 62.8698 24 61M36 61C34.3473 62.5125 33.106 63.1808 31 64C33.0416 65.416 34.511 65.7451 37 66C35.7516 65.3152 35.4516 65.2512 34 65C35.8161 63.703 36.8462 62.865 38 61L36 61M45 62C45.9311 64.7407 46.8186 66.104 49 68C48.5031 64.7929 47.8496 63.5564 45 62z"/>
<path style="fill:#b8b8b8; stroke:none;" d="M34 64C35.2484 64.6848 35.5484 64.7488 37 65L34 67C35.458 68.0811 36.248 68.4361 38 69L39 68L38 63L34 64z"/>
<path style="fill:#7a7a7a; stroke:none;" d="M38 63L38 66C38.6961 64.4463 38.6961 64.5537 38 63z"/>
<path style="fill:#b8b8b8; stroke:none;" d="M39 63C39.5451 64.6352 39.3648 64.4549 41 65L41 63L39 63z"/>
<path style="fill:#d3d3d3; stroke:none;" d="M41 65C41.5451 66.6352 41.3648 66.4549 43 67L43 65L41 65z"/>
<path style="fill:#949494; stroke:none;" d="M36.6667 67.3333C36.2222 67.7778 37.2778 67.7222 37.3333 67.6667C37.7778 67.2222 36.7222 67.2778 36.6667 67.3333z"/>
</svg>
