<?xml version="1.0" standalone="yes"?>
<svg xmlns="http://www.w3.org/2000/svg" width="170" height="280">
<path style="fill:#fef6ad; stroke:none;" d="M0 0L0 280L170 280L170 0L0 0z"/>
<path style="fill:#0b0b08; stroke:none;" d="M22 46C27.4195 53.4491 34.5588 53 43 53C38.7394 54.2594 34.4226 54 30 54C33.6438 61.2245 43.9346 60 51 60C45.854 61.5211 40.3395 61 35 61C39.8865 67.414 48.4938 66.995 56 67C51.4419 68.3473 46.7301 68 42 68C45.198 73.7995 53.1878 72 59 72L59 74C55.56 74.3 52.3569 75.2325 49 76C51.305 79.1604 54.3885 78.2525 58 78L54 79C56.8037 81.1247 59.5335 80.9885 63 81C61.4661 82.0226 61.5977 81.8046 61 83L66 84C64.9644 85.1863 64.6613 85.6037 64 87C65.8006 87.5618 67.1219 87.8241 69 88C62.146 93.6746 51.493 98.3244 50 108C52.712 107.177 53.5382 106.433 55 104C56.5536 106.323 57.3483 107.173 60 108L62 103L62 107L66 108L68 103L68 108C71.4211 106.933 72.5359 105.227 74 102C75.1344 105.587 75.7033 109.246 76 113C69.4656 113.826 62.5975 114.697 56 113.867C52.3921 113.414 49.5 111.174 46 110.394C40.949 109.268 35.1544 110 30 110C31.3925 111.434 32.2328 112.045 34 113C31.8941 113.644 30.2049 113.906 28 114L28 118L34 117L30 122C34.8694 122 40.2071 122.606 45 121.657C48.5268 120.958 51.4161 118.639 55 118.144C64.6532 116.808 75.2528 118 85 118L85 138C84.9944 140.74 85.4098 144.218 83.3966 146.413C80.1513 149.951 74.7991 147.48 71 146.424C61.4918 143.782 51.7911 140.318 42 139L44 135L29 136L31 131L27 131C27.1773 134.477 26.6744 137.595 26 141C24.6833 137.459 24.2757 134.721 25 131L20 131C20.3257 134.049 20.1782 136.944 20 140L18 140C17.8218 136.944 17.6743 134.049 18 131L13 131C14.4593 135.378 16.1291 139.78 18 144L20 144L21 138C22.7244 139.953 23.3447 141.463 24 144L27 144L29 137C33.1043 140.163 37.3154 143.787 42 146L41 141C52.5143 146.098 67.5395 150.167 80 152C67.5807 157.498 53.6705 159.15 41 164L42 159C37.4239 161.607 33.1703 164.786 29 168L30 163L26 163C26.572 165.377 26.8905 167.558 27 170C24.283 166.519 22.5207 163.731 18 163C18.9593 167.031 19.5942 170.575 17 174C18.769 174.779 20.0359 174.912 22 175C21.3521 172.291 21.0583 169.784 21 167C23.4305 170.174 25.1186 173.684 29 175L29 169L44 170L43 166C51.7174 164.825 60.5677 161.782 69 159.279C72.325 158.293 77.4028 155.598 80.8519 157.201C84.981 159.121 83.9998 165.325 84 169L84 204L89 204L89 169C89.0002 165.325 88.019 159.121 92.1481 157.201C95.5173 155.635 100.708 158.207 104 159.14C112.76 161.623 121.909 165.207 131 166L129 170L144 169C143.826 171.612 143.582 172.943 142 175C145.432 176.44 149.3 176 153 176L153 172C150.612 173.622 148.859 174.572 146 175L146 171C147.58 171.684 147.777 171.805 149 173C149.874 170.948 149.953 169.253 150 167L146 169C148.013 165.965 149.852 166.834 153 168L153 164L142 164L144 168C139.911 164.757 135.741 161.207 131 159L132 164C120.42 159.018 105.478 154.836 93 153C105.421 147.494 119.916 147.066 132 141L131 146C135.708 143.902 140.528 140.587 143 136L129 135L131 139C121.285 140.309 111.45 143.799 102 146.424C98.2007 147.48 92.8489 149.951 89.6034 146.413C87.5902 144.218 88.0056 140.74 88 138L88 118L133 118L132 122C136.201 120.79 139.974 118.676 144 117L144 115L132 109L133 114C125.014 114 115.767 115.282 108 113.289C105.684 112.695 102.463 112.137 100.704 110.401C97.293 107.035 98.83 102.213 102.11 99.4985C108.747 94.005 118.468 89.2778 127 88L126 85L131 86L132 83C124.428 79.1788 117.301 79 109 79C113.18 76.6584 118.824 77.1911 122.566 74.6821C127.366 71.4638 125.037 62.8791 119.981 61.4336C109.743 58.5066 98.1841 63.1895 88 64C87.3166 59.3726 85.8785 51.9067 81.6096 49.179C77.2212 46.3751 68.9994 48.1078 64 47.9853C50.0055 47.6425 36.0233 46 22 46z"/>
<path style="fill:#fef6ad; stroke:none;" d="M58.6667 77.3333C58.2222 77.7778 59.2778 77.7222 59.3333 77.6667C59.7778 77.2222 58.7222 77.2778 58.6667 77.3333M80 112C82.942 112.656 95.3133 117.085 95.365 110.906C95.3942 107.41 90.6434 104.006 90 100C84.8528 102.407 81.3212 106.443 80 112z"/>
<path style="fill:#0b0b08; stroke:none;" d="M151 140L151 142L150 143L144 140L144 144C146.237 143.98 149.526 144.386 151.377 142.822C154.951 139.802 149.287 136.804 147 136L148 132C149.673 133.446 151.1 134.935 153 136C152.824 134.122 152.562 132.801 152 131C143.687 131.656 143.496 136.66 151 140z"/>
</svg>
